<svg xmlns="http://www.w3.org/2000/svg" viewBox="0 0 500 500"><g id="Background_Complete" data-name="Background Complete"><polygon points="105.41 405.58 65.93 405.58 60.84 352.28 110.21 352.28 105.41 405.58" style="fill:#e0e0e0"/><path d="M396.16,321.17a30.1,30.1,0,0,0-12.89-4.43c-2.1-.22-4.41-.16-6.09,1.12a1.25,1.25,0,0,0-.63,1.11,1.34,1.34,0,0,0,.59.76,18.43,18.43,0,0,0,19,1.44" style="fill:#e0e0e0"/><path d="M395.83,320.81a63.16,63.16,0,0,1-8.33-7.33,20.93,20.93,0,0,1-5.21-9.65,3.86,3.86,0,0,1,.41-3.23c6.63,5.19,11.85,11.89,13.13,20.21" style="fill:#e0e0e0"/><path d="M396.09,321.12a30.18,30.18,0,0,1,.15-10.93,14.79,14.79,0,0,1,5.83-9c1.14,2.68.65,5.76-.16,8.56a41.68,41.68,0,0,1-5.77,12.16" style="fill:#e0e0e0"/><path d="M402.59,332.78A19.06,19.06,0,0,0,392.26,338a19.52,19.52,0,0,0-5.91,10.15c3.87-.24,7.16-3,9.54-6s4-6.42,6.65-9.28" style="fill:#e0e0e0"/><path d="M404,334.64A25.49,25.49,0,0,1,407,310.53c2.25,8,1.42,17-2.94,24.11" style="fill:#e0e0e0"/><path d="M412.6,344.87A18.44,18.44,0,0,0,395,355c-.22.44-.41,1-.12,1.38a1.33,1.33,0,0,0,1.17.35c3.47-.23,6.55-2.32,9.09-4.7s4.75-5.13,7.56-7.19" style="fill:#e0e0e0"/><path d="M412.33,344.32A32.79,32.79,0,0,1,412,326c.65-2.36,1.73-4.84,3.91-6a.77.77,0,0,1,.6-.11.79.79,0,0,1,.38.44,11,11,0,0,1,.92,5.26A33.17,33.17,0,0,1,417,331c-.69,3.25-1.06,6.75-2.84,9.56a19.26,19.26,0,0,0-1.14,2.1c-.33.71-.34,1-.65,1.53" style="fill:#e0e0e0"/><path d="M435.08,347.71a23.62,23.62,0,0,1,4.14-19.44c.3-.39.69-.8,1.18-.76.74.07.93,1.06.9,1.81a35.2,35.2,0,0,1-6.22,18.39" style="fill:#e0e0e0"/><path d="M437.13,349.11a28.28,28.28,0,0,0,23.2-4.72,18.76,18.76,0,0,0-12.56-1.54c-4.2,1-8,2.84-10.64,6.26" style="fill:#e0e0e0"/><path d="M438.86,344.84c4.36-7.11,12.72-11.75,21.05-12.18-1,3.39-3.74,6-6.88,7.62a38.3,38.3,0,0,1-10.11,3c-1.35.27-3.19.55-4.06,1.61" style="fill:#e0e0e0"/><path d="M435.51,324.13a61,61,0,0,0,2.69-12.34,20.51,20.51,0,0,0-2.45-12.2c-4.08,7.89-4.49,17.1-.36,25" style="fill:#e0e0e0"/><path d="M449.23,317.19c4.76-8.66,14.48-15.58,24.32-16.55-3.79,9.45-14.14,16.76-24.32,16.55" style="fill:#e0e0e0"/><path d="M446.23,318.89c7.11,1.08,13.16,5.62,19.8,8.37a8.86,8.86,0,0,0,4.48.86,3.5,3.5,0,0,0,2.19-6.2,9.54,9.54,0,0,0-3.25-2c-7.23-3-15-3.09-22.61-1.26" style="fill:#e0e0e0"/><path d="M442.12,323.87c1.61.46,2.16,1.3,3.43,2.38a37.07,37.07,0,0,0,15,7.72c.57.14,1.32.2,1.61-.32s-.07-1-.39-1.41a20.64,20.64,0,0,0-9.07-6.15c-3.46-1.29-6.47-2.85-10.6-2.51" style="fill:#e0e0e0"/><path d="M437.48,293.77a28.42,28.42,0,0,0,21.78,7.41,1.52,1.52,0,0,0,1-.35c.54-.6-.11-1.52-.75-2-6.41-5-14.17-7.06-22-5" style="fill:#e0e0e0"/><path d="M443,291.76a30.36,30.36,0,0,1,27.19-4.49,21.6,21.6,0,0,1-13,5.69,40.92,40.92,0,0,1-14.23-1.2" style="fill:#e0e0e0"/><path d="M440.79,277.92c-.63-6.39-.22-11.44-.66-17.86,0-.51-.15-1.13-.63-1.32-.67-.25-1.22.57-1.44,1.25a20.45,20.45,0,0,0,2.72,17.79" style="fill:#e0e0e0"/><path d="M440.33,278.63a37.46,37.46,0,0,0,10.59-10.29c2.09-2.87,3.86-6.3,3.38-9.81a10.13,10.13,0,0,0-7.64,3.8,21.33,21.33,0,0,0-3.89,7.83c-.85,2.81-1.44,5.71-2.44,8.47" style="fill:#e0e0e0"/><path d="M450.74,275.74a85.43,85.43,0,0,0,26.06-15.37c-3.11-1.25-6.68-.5-9.79.75a30.89,30.89,0,0,0-16.41,14.55" style="fill:#e0e0e0"/><path d="M443.26,282.13a53.13,53.13,0,0,0,14.47.07c4.69-.79,9.13-2.65,13.51-4.49a1.57,1.57,0,0,0,.92-.7,1,1,0,0,0-.33-1.15,2.71,2.71,0,0,0-1.15-.54c-4.77-1.34-9.91-.71-14.6.87a67.47,67.47,0,0,0-12.82,5.94" style="fill:#e0e0e0"/><path d="M415.78,294a25.6,25.6,0,0,1-.23-21.19c2,3,2.24,6.92,1.87,10.54s-1.46,7.34-1.53,11" style="fill:#e0e0e0"/><path d="M402.67,287.37a29.58,29.58,0,0,0-22,9.36,20.5,20.5,0,0,0,12-2.23A61.21,61.21,0,0,0,403,287.6" style="fill:#e0e0e0"/><path d="M393.85,284.43c-4-.33-7.86-.83-11.72.36a14.06,14.06,0,0,0-8.93,7.57,21.29,21.29,0,0,0,11-2.07,63.92,63.92,0,0,0,9.66-5.86" style="fill:#e0e0e0"/><path d="M406.91,284.56c-3.61-2.36-7.31-4.77-11.51-5.75s-9.07-.25-12,2.91c3.4,2,7.53,2.23,11.47,2.23s8.77-.05,12.49,1.27" style="fill:#e0e0e0"/><path d="M406.93,284.75c-6.17-6.05-8.51-16.93-6-25.21a38.47,38.47,0,0,1,6,25.21" style="fill:#e0e0e0"/><path d="M423.88,267.59c1.17-2.7,2-5.54,3-8.29a23.73,23.73,0,0,1,4.31-7.64,11.32,11.32,0,0,1,7.64-4A30.8,30.8,0,0,1,424,267.64" style="fill:#e0e0e0"/><path d="M420.82,271.17c-1.93-2.65-4.15-6.25-6.76-8.22s-6-3.18-9.19-2.42a21.39,21.39,0,0,0,15.95,10.64" style="fill:#e0e0e0"/><path d="M421.43,267.82a45.9,45.9,0,0,1-3-9.86,15.36,15.36,0,0,1,1.54-10c3.39,6.4,4.48,13.26,1.67,19.94" style="fill:#e0e0e0"/><path d="M423.92,248c1.91-6.35,7.72-11,14-13.16a5.21,5.21,0,0,1,2.46-.37,2.12,2.12,0,0,1,1.8,1.51c.23,1.08-.66,2-1.5,2.76A47.6,47.6,0,0,1,423.92,248" style="fill:#e0e0e0"/><path d="M424,242.76c.24-4.09.49-8.24,1.82-12.12s3.9-7.51,7.63-9.2c.63,4.13-1.19,8.24-3.39,11.79s-4.84,6.91-6.17,10.88" style="fill:#e0e0e0"/><path d="M423.88,245.57c-1.58-4.62-1.74-10.49-4.51-14.52-1.94-2.81-5-4.73-6.7-7.71a11.72,11.72,0,0,0,.39,8.76,25.43,25.43,0,0,0,5.12,7.33c2.05,2.18,3.8,3.83,5.7,6.14" style="fill:#e0e0e0"/><path d="M423.92,381.71c-.13,0-.23-30.84-.24-68.87s.08-68.88.2-68.88.23,30.83.24,68.88S424,381.71,423.92,381.71Z" style="fill:#e0e0e0"/><path d="M450.86,289.34a7.6,7.6,0,0,1-1.15.43l-3.2,1.08c-2.69.91-6.38,2.24-10.39,3.88s-7.72,3.09-9.85,4.94a7.15,7.15,0,0,0-2,2.62c-.31.72-.36,1.17-.41,1.16a1,1,0,0,1,0-.33,5.07,5.07,0,0,1,.22-.89,7,7,0,0,1,1.94-2.8,17.48,17.48,0,0,1,4.27-2.65c1.71-.8,3.61-1.63,5.62-2.46,4-1.65,7.75-2.93,10.47-3.77,1.36-.43,2.47-.74,3.24-.95A6.21,6.21,0,0,1,450.86,289.34Z" style="fill:#e0e0e0"/><path d="M459.7,267.64a1.73,1.73,0,0,1-.33.34l-1,.93-3.69,3.36-12.3,11c-4.8,4.27-8.94,8.35-11.82,11.43-1.44,1.53-2.57,2.8-3.34,3.69l-.9,1a2.4,2.4,0,0,1-.33.34,2.06,2.06,0,0,1,.26-.4c.19-.24.46-.61.83-1.07.74-.92,1.84-2.23,3.25-3.8a156.42,156.42,0,0,1,11.76-11.54c4.81-4.27,9.2-8.1,12.38-10.86l3.79-3.25,1-.86A1.9,1.9,0,0,1,459.7,267.64Z" style="fill:#e0e0e0"/><path d="M437.21,287.56c-.12-.05.88-2.37,1.88-5.3s1.48-5.39,1.61-5.37a18,18,0,0,1-1.19,5.52,36.4,36.4,0,0,1-1.49,3.7A5.34,5.34,0,0,1,437.21,287.56Z" style="fill:#e0e0e0"/><path d="M423.94,306.23a6.41,6.41,0,0,1-.74-.86l-1.89-2.43c-1.59-2.06-3.79-4.9-6.26-8s-4.73-5.89-6.37-7.91l-1.94-2.39a6,6,0,0,1-.67-.92,5.84,5.84,0,0,1,.8.8c.49.54,1.19,1.33,2.05,2.31,1.7,2,4,4.73,6.48,7.84s4.63,6,6.16,8.09c.77,1.05,1.37,1.91,1.78,2.52A5,5,0,0,1,423.94,306.23Z" style="fill:#e0e0e0"/><path d="M418,298.64a10.77,10.77,0,0,1-2.48-4.63,13.09,13.09,0,0,1-.56-4.67h.2c-.09.36-.16.55-.19.54s0-.2,0-.57l.2,0a20.6,20.6,0,0,0,.79,4.54A32,32,0,0,0,418,298.64Z" style="fill:#e0e0e0"/><path d="M410.41,289.05a8.17,8.17,0,0,0-1.73-1,11.74,11.74,0,0,0-4.8-.38,29.53,29.53,0,0,0-4.83.78,16.11,16.11,0,0,1-2,.48,6.53,6.53,0,0,1,1.9-.78,22.1,22.1,0,0,1,4.89-.92,10.48,10.48,0,0,1,4.95.53A3.08,3.08,0,0,1,410.41,289.05Z" style="fill:#e0e0e0"/><path d="M408.6,286.72c0,.07-1-.4-2.65-1a26.75,26.75,0,0,0-6.61-1.36,27,27,0,0,0-6.73.34c-1.71.3-2.74.62-2.77.55a2.64,2.64,0,0,1,.71-.3,16.19,16.19,0,0,1,2-.56,23.52,23.52,0,0,1,13.52,1,15.9,15.9,0,0,1,1.89.86A2.52,2.52,0,0,1,408.6,286.72Z" style="fill:#e0e0e0"/><path d="M423.88,276.89a58.13,58.13,0,0,1-1.93-6.71,59,59,0,0,1-1.5-6.82,54,54,0,0,1,1.94,6.71A54.89,54.89,0,0,1,423.88,276.89Z" style="fill:#e0e0e0"/><path d="M424,276.89a31.58,31.58,0,0,0-2.14-4,17.73,17.73,0,0,0-3.15-3.25,2.92,2.92,0,0,1,1.21.63,9.6,9.6,0,0,1,2.3,2.36A8.89,8.89,0,0,1,424,276.89Z" style="fill:#e0e0e0"/><path d="M423.92,365.27c-.05,0-.14-.74-.49-2a28.89,28.89,0,0,0-2.06-5.34,74.18,74.18,0,0,0-10.93-15.4c-2.45-2.79-4.81-5.42-6.82-7.94a55.64,55.64,0,0,1-4.88-7,34,34,0,0,1-2.46-5.22c-.23-.65-.39-1.15-.49-1.5a2.22,2.22,0,0,1-.12-.53s.26.71.77,2a38.36,38.36,0,0,0,2.57,5.13,59.16,59.16,0,0,0,4.93,6.93c2,2.49,4.39,5.11,6.83,7.9a70.1,70.1,0,0,1,10.88,15.56,26.76,26.76,0,0,1,2,5.44,14.61,14.61,0,0,1,.27,1.55A2.72,2.72,0,0,1,423.92,365.27Z" style="fill:#e0e0e0"/><path d="M448.27,337.77a13.68,13.68,0,0,1-1.28.71,27.78,27.78,0,0,0-3.31,2.19,38.28,38.28,0,0,0-4.35,4c-1.52,1.61-3.09,3.48-4.7,5.49-3.21,4-6.21,7.58-8,10.42-.91,1.41-1.58,2.6-2,3.44a11.3,11.3,0,0,1-.7,1.28s0-.13.11-.36.23-.57.43-1a33.62,33.62,0,0,1,1.9-3.52,113.83,113.83,0,0,1,7.92-10.54c1.61-2,3.2-3.89,4.76-5.5a34.66,34.66,0,0,1,4.45-3.93,22.64,22.64,0,0,1,3.42-2.09c.42-.21.77-.34,1-.44S448.26,337.75,448.27,337.77Z" style="fill:#e0e0e0"/><path d="M448.74,346.69a19.21,19.21,0,0,1-2.69.39,35.83,35.83,0,0,0-6.4,1.26,19.11,19.11,0,0,0-5.73,3c-1.32,1-1.94,1.86-2,1.81s.1-.24.4-.62a10,10,0,0,1,1.4-1.44,17.21,17.21,0,0,1,5.79-3.18,28.32,28.32,0,0,1,6.51-1.15A14.87,14.87,0,0,1,448.74,346.69Z" style="fill:#e0e0e0"/><path d="M432.7,352.18c-.14-.08,1.08-1.93,2-4.43S435.81,343,436,343a4.13,4.13,0,0,1,0,1.45,15.83,15.83,0,0,1-.79,3.41,17.11,17.11,0,0,1-1.56,3.13A4.21,4.21,0,0,1,432.7,352.18Z" style="fill:#e0e0e0"/><path d="M456.15,313.81a2.22,2.22,0,0,1-.43.23l-1.26.58c-.56.23-1.23.54-2,.94s-1.65.79-2.58,1.35l-1.47.84c-.51.29-1,.64-1.55,1-1.09.65-2.18,1.46-3.34,2.29a62.08,62.08,0,0,0-6.95,6.12,62.87,62.87,0,0,0-5.88,7.16c-.79,1.19-1.56,2.3-2.18,3.41-.32.55-.65,1.06-.92,1.58s-.54,1-.79,1.5c-.52.95-.9,1.85-1.27,2.62s-.65,1.46-.87,2-.39.95-.53,1.29a3.67,3.67,0,0,1-.21.44,1.6,1.6,0,0,1,.13-.47c.12-.35.27-.78.45-1.32s.45-1.27.81-2.06.7-1.7,1.21-2.66l.76-1.52c.27-.53.6-1.05.91-1.61.61-1.12,1.38-2.25,2.16-3.45a55.28,55.28,0,0,1,12.93-13.38c1.17-.82,2.28-1.63,3.38-2.28.54-.33,1.06-.67,1.57-1l1.5-.82c.94-.54,1.84-.93,2.62-1.3a20.85,20.85,0,0,1,2-.87l1.3-.5A2.78,2.78,0,0,1,456.15,313.81Z" style="fill:#e0e0e0"/><path d="M436.88,326.72a3.19,3.19,0,0,1,1.06-1.58,6.67,6.67,0,0,1,4.27-1.63,11.71,11.71,0,0,1,4.49.87,6.28,6.28,0,0,1,1.7.83,10.51,10.51,0,0,1-1.8-.53,13.59,13.59,0,0,0-4.37-.73,7,7,0,0,0-4.08,1.43A12.5,12.5,0,0,0,436.88,326.72Z" style="fill:#e0e0e0"/><path d="M434,329.69a11.41,11.41,0,0,0,.94-8.06,2.62,2.62,0,0,1,.5,1.15,8.22,8.22,0,0,1,.22,3,8,8,0,0,1-.91,2.89C434.38,329.37,434,329.73,434,329.69Z" style="fill:#e0e0e0"/><path d="M402.62,369.69c.66,11.79,4.21,23.77,9.68,35.89h23.75c5.21-12,8.51-24,9.1-35.89Z" style="fill:#e0e0e0"/><path d="M441.3,388.76c0,.12-7.82.22-17.46.22s-17.47-.1-17.47-.22,7.82-.22,17.47-.22S441.3,388.64,441.3,388.76Z" style="fill:#fafafa"/><path d="M440.77,393c0,.12-7.33.22-16.37.22S408,393.15,408,393s7.33-.22,16.38-.22S440.77,392.91,440.77,393Z" style="fill:#fafafa"/><path d="M412.68,377.43a68.11,68.11,0,0,1,0,10.94,68.11,68.11,0,0,1,0-10.94Z" style="fill:#fafafa"/><path d="M425.41,377.43a73,73,0,0,1,0,11.33,69.88,69.88,0,0,1,0-11.33Z" style="fill:#fafafa"/><path d="M437.35,377.33a72.74,72.74,0,0,1,0,11.56,76,76,0,0,1,0-11.56Z" style="fill:#fafafa"/><path d="M444.4,377.43c0,.12-9.17.22-20.49.22s-20.49-.1-20.49-.22,9.18-.23,20.49-.23S444.4,377.3,444.4,377.43Z" style="fill:#fafafa"/><rect x="47.89" y="128.17" width="81.77" height="74.1" style="fill:#fafafa"/><path d="M129.67,202.28s0-.48,0-1.38,0-2.24,0-4c0-3.48,0-8.57,0-15,0-12.95-.06-31.45-.1-53.72l.19.19-81.77,0h0l.22-.22c0,27,0,52.33,0,74.11l-.2-.2,59.15.1,16.68,0,4.41,0h1.14l.4,0h-1.49l-4.38,0-16.64.05-59.27.1H47.7v-.19c0-21.78,0-47.15,0-74.11V128h.22l81.77,0h.18v.19c0,22.32-.07,40.86-.09,53.84,0,6.46,0,11.53,0,15,0,1.71,0,3,0,3.93S129.67,202.28,129.67,202.28Z" style="fill:#e0e0e0"/><rect x="57.47" y="154.49" width="3.8" height="3.8" style="fill:#e0e0e0"/><rect x="66.84" y="154.49" width="3.8" height="3.8" style="fill:#e0e0e0"/><rect x="76.37" y="154.32" width="3.8" height="3.8" style="fill:#e0e0e0"/><rect x="85.56" y="154.49" width="3.8" height="3.8" style="fill:#e0e0e0"/><rect x="94.93" y="154.49" width="3.8" height="3.8" style="fill:#e0e0e0"/><rect x="104.29" y="154.49" width="3.8" height="3.8" style="fill:#e0e0e0"/><rect x="113.65" y="154.49" width="3.8" height="3.8" style="fill:#ebebeb"/><rect x="57.47" y="162.58" width="3.8" height="3.8" style="fill:#ebebeb"/><rect x="66.84" y="162.58" width="3.8" height="3.8" style="fill:#e0e0e0"/><rect x="76.2" y="162.58" width="3.8" height="3.8" style="fill:#ebebeb"/><rect x="85.56" y="162.58" width="3.8" height="3.8" style="fill:#e0e0e0"/><rect x="94.93" y="162.58" width="3.8" height="3.8" style="fill:#e0e0e0"/><rect x="104.46" y="162.41" width="3.8" height="3.8" style="fill:#e0e0e0"/><rect x="113.65" y="162.58" width="3.8" height="3.8" style="fill:#e0e0e0"/><rect x="57.47" y="170.67" width="3.8" height="3.8" style="fill:#e0e0e0"/><rect x="67.01" y="170.5" width="3.8" height="3.8" style="fill:#e0e0e0"/><rect x="76.2" y="170.67" width="3.8" height="3.8" style="fill:#e0e0e0"/><rect x="85.56" y="170.67" width="3.8" height="3.8" style="fill:#ebebeb"/><rect x="94.93" y="170.67" width="3.8" height="3.8" style="fill:#e0e0e0"/><rect x="104.29" y="170.67" width="3.8" height="3.8" style="fill:#e0e0e0"/><rect x="113.65" y="170.67" width="3.8" height="3.8" style="fill:#e0e0e0"/><rect x="57.47" y="178.76" width="3.8" height="3.8" style="fill:#e0e0e0"/><rect x="66.84" y="178.76" width="3.8" height="3.8" style="fill:#e0e0e0"/><rect x="76.2" y="178.76" width="3.8" height="3.8" style="fill:#e0e0e0"/><rect x="85.74" y="178.58" width="3.8" height="3.8" style="fill:#e0e0e0"/><rect x="94.93" y="178.76" width="3.8" height="3.8" style="fill:#e0e0e0"/><rect x="104.29" y="178.76" width="3.8" height="3.8" style="fill:#ebebeb"/><rect x="113.65" y="178.76" width="3.8" height="3.8" style="fill:#e0e0e0"/><rect x="57.47" y="186.84" width="3.8" height="3.8" style="fill:#e0e0e0"/><rect x="66.84" y="186.84" width="3.8" height="3.8" style="fill:#ebebeb"/><rect x="76.2" y="186.84" width="3.8" height="3.8" style="fill:#e0e0e0"/><rect x="85.56" y="186.84" width="3.8" height="3.8" style="fill:#e0e0e0"/><rect x="94.93" y="186.84" width="3.8" height="3.8" style="fill:#e0e0e0"/><rect x="104.46" y="186.67" width="3.8" height="3.8" style="fill:#e0e0e0"/><rect x="113.65" y="186.84" width="3.8" height="3.8" style="fill:#e0e0e0"/><path d="M116.59,148.56H57.2a1.09,1.09,0,0,1-1.1-1.09h0a1.1,1.1,0,0,1,1.1-1.1h59.39a1.1,1.1,0,0,1,1.1,1.1h0A1.09,1.09,0,0,1,116.59,148.56Z" style="fill:#e0e0e0"/><path d="M60.76,140.9H57.2a1.1,1.1,0,0,1-1.1-1.1h0a1.09,1.09,0,0,1,1.1-1.09h3.56a1.09,1.09,0,0,1,1.09,1.09h0A1.09,1.09,0,0,1,60.76,140.9Z" style="fill:#e0e0e0"/><path d="M77,140.9H65.45a1.1,1.1,0,0,1-1.1-1.1h0a1.09,1.09,0,0,1,1.1-1.09H77a1.09,1.09,0,0,1,1.09,1.09h0A1.09,1.09,0,0,1,77,140.9Z" style="fill:#e0e0e0"/><path d="M175.8,265.47a8,8,0,0,0-3.81-2.54c-1.46-.51-3-.8-4.46-1.28-.7-.23-1.49-.63-1.59-1.36a1.52,1.52,0,0,1,.63-1.3,10.09,10.09,0,0,1,1.3-.77,5.3,5.3,0,0,0-4.8-9.42,1,1,0,0,0-.55.42.86.86,0,0,0,.32,1,10.19,10.19,0,0,0,1,.58c1.25.85,1.2,2.85.27,4a7.32,7.32,0,0,1-3.92,2.16,11.85,11.85,0,0,0-4.19,1.69c-1.19.93-1.94,2.66-1.23,4a4,4,0,0,0,2.41,1.7,13.41,13.41,0,0,1,2.85,1,2.56,2.56,0,0,1,1.37,2.49c-.25,1.31-1.77,1.86-3.05,2.24a44.18,44.18,0,0,0-4.35,1.57,5.86,5.86,0,0,0-2.52,1.69,2.22,2.22,0,0,0,0,2.82l17.44.52c-.65-.17-1.56-2.6-1.2-3.17a2.67,2.67,0,0,1,1.71-1c1.24-.3,2.52-.37,3.76-.68a4.9,4.9,0,0,0,3.1-2.05A4.11,4.11,0,0,0,175.8,265.47Zm-16.15-3.56a1.23,1.23,0,0,1-.89.7,1.91,1.91,0,0,1-1.15-.16,1.84,1.84,0,0,1-1.09-1.16,2,2,0,0,1,.4-1.45h0a1.11,1.11,0,0,1,.21-.22,1.3,1.3,0,0,1,.86-.35,1.58,1.58,0,0,1,1.14.54,2.5,2.5,0,0,1,.55,1.16A1.67,1.67,0,0,1,159.65,261.91Z" style="fill:#f5f5f5"/><path d="M161.69,249.49a.73.73,0,1,1-.72-.72A.72.72,0,0,1,161.69,249.49Z" style="fill:#f5f5f5"/><path d="M148.8,276.61h21.11l-1.58,11.61s-1.37,5.72-4.58,5.72H154.6a9.81,9.81,0,0,1-4.45-6.26Z" style="fill:#e0e0e0"/><path d="M168.33,282.6l.31-.07s.2,0,0,0,0,0,.09,0a5.32,5.32,0,0,1,.69,0c-.23,0,0,0,.08,0a2.37,2.37,0,0,1,.36.09l.3.1c.13,0,0,0-.06,0l.19.09a4.43,4.43,0,0,1,.59.36c.12.08,0,0,0,0l.12.11a3.07,3.07,0,0,1,.26.25c.07.07.2.25.07.07.08.11.15.21.21.31l.15.29c.07.12,0,0,0-.06a1.72,1.72,0,0,1,.07.21c0,.12.08.24.11.36s.06.35,0,.2,0,.16,0,.21a2.41,2.41,0,0,1,0,.38c0,.07,0,.14,0,.22s0,.2,0,0,0,.16,0,.2a1.92,1.92,0,0,1-.09.32c0,.08-.14.37,0,.15a4.53,4.53,0,0,1-.34.61l-.09.13s.13-.14,0,0-.19.21-.3.3-.27.22-.16.14l-.17.11a2.49,2.49,0,0,1-.28.15l-.14.07c.16-.08.08,0,0,0s-.48.13-.72.19.06,0,.08,0l-.21,0h-.68c.16,0,0,0,0,0l-.21-.05-.4-.12-.05,0c.16.07-.13-.07-.13-.07a1.28,1.28,0,0,0-1.29,2.2A5.45,5.45,0,0,0,173.7,288a5.62,5.62,0,0,0,.6-4A5.17,5.17,0,0,0,172,280.8a5.45,5.45,0,0,0-4.33-.65,1.27,1.27,0,1,0,.68,2.45Z" style="fill:#e0e0e0"/><path d="M167.9,277.65s-4.08.08-9.11.08-9.1,0-9.1-.08,4.08-.08,9.1-.08S167.9,277.61,167.9,277.65Z" style="fill:#f5f5f5"/><polygon points="303.19 40.21 303.19 119.28 201.07 119.28 197.39 40.76 303.19 40.21" style="fill:#e0e0e0"/><rect x="209.15" y="28.91" width="78.61" height="102.12" transform="translate(168.48 328.43) rotate(-90)" style="fill:#f5f5f5"/><path d="M299.91,119.67H197V40.28H299.91Zm-102.13-.78H299.13V41.06H197.78Z" style="fill:#e0e0e0"/><path d="M197.39,40.49a9.67,9.67,0,0,1,1.73,1.06c1,.69,2.45,1.68,4,2.82s2.89,2.2,3.85,3a8.91,8.91,0,0,1,1.49,1.38,11.75,11.75,0,0,1-1.67-1.15l-3.92-2.91L199,41.78A11.33,11.33,0,0,1,197.39,40.49Z" style="fill:#e0e0e0"/><path d="M299.52,40.67a59.9,59.9,0,0,1-5.41,4.2,58.46,58.46,0,0,1-5.66,3.88,58.24,58.24,0,0,1,5.42-4.21A56.44,56.44,0,0,1,299.52,40.67Z" style="fill:#e0e0e0"/><path d="M197.39,119.28a66.06,66.06,0,0,1,5.34-5.09,63.9,63.9,0,0,1,5.61-4.79,70.42,70.42,0,0,1-5.34,5.09A66.07,66.07,0,0,1,197.39,119.28Z" style="fill:#e0e0e0"/><path d="M288.05,108.93c.07-.08,2.7,2.17,5.87,5a72.77,72.77,0,0,1,5.6,5.33,72.44,72.44,0,0,1-5.87-5A71.65,71.65,0,0,1,288.05,108.93Z" style="fill:#e0e0e0"/><rect x="208.45" y="48.75" width="80" height="60.18" style="fill:#fff"/><path d="M288.45,48.75h-1.51l-4.36,0-16.4.05-57.73.09.18-.18c0,18,0,38.54,0,60.17h0l-.2-.2,80,0-.16.17c0-18.19.06-33.21.08-43.7,0-5.25,0-9.36.05-12.17,0-1.4,0-2.47,0-3.2s0-1.11,0-1.11,0,.36,0,1.07,0,1.79,0,3.17c0,2.81,0,6.9,0,12.13,0,10.52.06,25.58.09,43.81v.17h-.17l-80,0h-.2v-.2h0c0-21.63,0-42.12,0-60.17v-.19h.18l57.84.09,16.37.05,4.32,0h1.47Z" style="fill:#e0e0e0"/><line x1="299.52" y1="119.28" x2="288.05" y2="108.93" style="fill:#fff"/><path d="M267,59.84c0,.12-7.91.21-17.67.21s-17.68-.09-17.68-.21,7.92-.21,17.68-.21S267,59.73,267,59.84Z" style="fill:#e0e0e0"/><path d="M274.94,79.74c0,.12-11.86.21-26.49.21S222,79.86,222,79.74s11.85-.21,26.48-.21S274.94,79.63,274.94,79.74Z" style="fill:#e0e0e0"/><path d="M274.94,84.66c0,.11-11.86.21-26.49.21S222,84.77,222,84.66s11.85-.21,26.48-.21S274.94,84.54,274.94,84.66Z" style="fill:#e0e0e0"/><path d="M219.35,69.74a3.16,3.16,0,0,1,3.36-3.18,3.23,3.23,0,0,1,2.63,1.15l-1.1,1A1.82,1.82,0,0,0,222.8,68a1.75,1.75,0,0,0,0,3.5,1.79,1.79,0,0,0,1.44-.72l1.1,1a3.24,3.24,0,0,1-2.63,1.16A3.17,3.17,0,0,1,219.35,69.74Z" style="fill:#e0e0e0"/><path d="M231,71.46V72.8h-4.92V66.68h4.8V68h-3.08v1h2.71v1.3h-2.71v1.11Z" style="fill:#e0e0e0"/><path d="M234.66,71.18h-.94V72.8H232V66.68h2.8c1.67,0,2.71.87,2.71,2.27a2,2,0,0,1-1.19,1.93l1.32,1.92h-1.86Zm0-3.13h-1v1.79h1c.72,0,1.08-.33,1.08-.89S235.4,68.05,234.68,68.05Z" style="fill:#e0e0e0"/><path d="M239.67,68.06h-1.88V66.68h5.48v1.38H241.4V72.8h-1.73Z" style="fill:#e0e0e0"/><path d="M243.92,66.68h1.73V72.8h-1.73Z" style="fill:#e0e0e0"/><path d="M248.62,68v1.35h2.7V70.7h-2.7v2.1h-1.73V66.68h4.8V68Z" style="fill:#e0e0e0"/><path d="M252.5,66.68h1.73V72.8H252.5Z" style="fill:#e0e0e0"/><path d="M255.15,69.74a3.16,3.16,0,0,1,3.36-3.18,3.27,3.27,0,0,1,2.64,1.15l-1.11,1A1.8,1.8,0,0,0,258.6,68a1.75,1.75,0,0,0,0,3.5,1.78,1.78,0,0,0,1.44-.72l1.11,1a3.27,3.27,0,0,1-2.64,1.16A3.17,3.17,0,0,1,255.15,69.74Z" style="fill:#e0e0e0"/><path d="M265.91,71.61h-2.59l-.48,1.19h-1.76l2.7-6.12h1.7l2.71,6.12h-1.8Zm-.51-1.27-.78-2-.79,2Z" style="fill:#e0e0e0"/><path d="M269.68,68.06H267.8V66.68h5.48v1.38h-1.87V72.8h-1.73Z" style="fill:#e0e0e0"/><path d="M278.84,71.46V72.8h-4.91V66.68h4.8V68h-3.09v1h2.72v1.3h-2.72v1.11Z" style="fill:#e0e0e0"/><path d="M255.4,96.88a6.17,6.17,0,1,1-6.16-6.16A6.16,6.16,0,0,1,255.4,96.88Z" style="fill:#e0e0e0"/><path d="M249.24,103.06a6.18,6.18,0,1,1,6.18-6.18A6.19,6.19,0,0,1,249.24,103.06Zm0-12.32a6.14,6.14,0,1,0,6.14,6.14A6.15,6.15,0,0,0,249.24,90.74Z" style="fill:#e0e0e0"/><path d="M236.7,96.88a64.83,64.83,0,0,1-7.43.21,64.58,64.58,0,0,1-7.42-.21,67.43,67.43,0,0,1,7.42-.21A67.7,67.7,0,0,1,236.7,96.88Z" style="fill:#e0e0e0"/><path d="M277.42,96.88a81,81,0,0,1-8.31.21,80.7,80.7,0,0,1-8.3-.21c0-.11,3.71-.21,8.3-.21S277.42,96.77,277.42,96.88Z" style="fill:#e0e0e0"/><path d="M232.86,95.72a2.3,2.3,0,0,1-.09-.51,5.91,5.91,0,0,1,.09-1.48,5.32,5.32,0,0,1,.94-2.17,1.25,1.25,0,0,1,.63-.43,1,1,0,0,1,.82.18,1.47,1.47,0,0,1,.51,1.6,4.75,4.75,0,0,1-.9,1.61A8.8,8.8,0,0,1,233.49,96a4.09,4.09,0,0,1-2,.9,3.17,3.17,0,0,1-2.24-.5,2.43,2.43,0,0,1-1-2.2,7.29,7.29,0,0,1,.67-2.4,2.71,2.71,0,0,1,.81-1.05,1.7,1.7,0,0,1,1.35-.34,1.31,1.31,0,0,1,1,1,2.83,2.83,0,0,1-.08,1.39,8.33,8.33,0,0,1-1.22,2.35,5.29,5.29,0,0,1-2,1.68,4,4,0,0,1-2.49.32,3,3,0,0,1-2-1.39,3.87,3.87,0,0,1-.52-2.23,5.91,5.91,0,0,1,.54-2.07c.28-.59.62-1.3,1.37-1.49a.89.89,0,0,1,.94.44,1.92,1.92,0,0,1,.25.91,6,6,0,0,1-.74,3,6.19,6.19,0,0,1-1.47,1.83,5.5,5.5,0,0,1-1.25.81,3,3,0,0,1-.48.18A8.91,8.91,0,0,0,224.7,96a6.41,6.41,0,0,0,1.38-1.82,5.88,5.88,0,0,0,.64-2.91,1.8,1.8,0,0,0-.21-.76.58.58,0,0,0-.62-.28,1.23,1.23,0,0,0-.66.49,3.63,3.63,0,0,0-.45.83,4.27,4.27,0,0,0,0,4,2.59,2.59,0,0,0,1.72,1.2,3.54,3.54,0,0,0,2.23-.3,6.4,6.4,0,0,0,2.95-3.78,2.25,2.25,0,0,0,.08-1.17.89.89,0,0,0-.69-.7,1.34,1.34,0,0,0-1,.26,2.36,2.36,0,0,0-.68.9,6.87,6.87,0,0,0-.64,2.24,2,2,0,0,0,.81,1.86,2.77,2.77,0,0,0,2,.45,3.71,3.71,0,0,0,1.79-.81,8.06,8.06,0,0,0,1.32-1.36,4.6,4.6,0,0,0,.88-1.48,1.21,1.21,0,0,0-.39-1.32.78.78,0,0,0-1.12.2,5.31,5.31,0,0,0-.95,2A7.78,7.78,0,0,0,232.86,95.72Z" style="fill:#ebebeb"/><path d="M275.47,94.73s-.05,0-.16.09a5.31,5.31,0,0,1-.49.22,14.69,14.69,0,0,1-2,.68,18.63,18.63,0,0,1-3.25.6,19.48,19.48,0,0,1-2.07.08,21.74,21.74,0,0,0-2.29-.06,1.54,1.54,0,0,0-1,.51.93.93,0,0,0-.12,1.06,5.54,5.54,0,0,0,.75,1.08c.29.36.6.71.91,1.07s.66.71,1,1.06a3.31,3.31,0,0,0,1.13.87,1,1,0,0,0,1.17-.41,2.22,2.22,0,0,0,.35-1.41A33.6,33.6,0,0,1,271,86.06l.18-.53.21.51a11.7,11.7,0,0,1,.83,3.68,12.18,12.18,0,0,1-.84,5.14,12.56,12.56,0,0,1-1.2,2.23,3.61,3.61,0,0,1-1.94,1.64,1.18,1.18,0,0,1-1.27-.45,2.41,2.41,0,0,1-.34-1.23,13,13,0,0,1,.08-2.34A12.72,12.72,0,0,1,268,90.48l.14-.27.17.24a2.84,2.84,0,1,1-4.59,3.33,2.94,2.94,0,0,1,.25-3.47,1.6,1.6,0,0,1,.71-.49.75.75,0,0,1,.83.23,1.14,1.14,0,0,1,.2.78,2.36,2.36,0,0,1-.15.71,9.27,9.27,0,0,1-2.28,3.56,9.51,9.51,0,0,1-.86.72,1.55,1.55,0,0,1-.33.2l.29-.25a10.3,10.3,0,0,0,.82-.75,9.31,9.31,0,0,0,2.15-3.55,1.45,1.45,0,0,0,0-1.27c-.28-.35-.85-.11-1.16.29a2.63,2.63,0,0,0-.19,3.12,2.5,2.5,0,1,0,4-2.94l.31,0a12.6,12.6,0,0,0-1.23,4.11A12.24,12.24,0,0,0,267,97a1.93,1.93,0,0,0,.27,1,.76.76,0,0,0,.85.29,2.33,2.33,0,0,0,.94-.55,7.69,7.69,0,0,0,.75-.92,11.48,11.48,0,0,0,2-7.11,11.43,11.43,0,0,0-.8-3.55h.39a33.68,33.68,0,0,0-1.57,14,2.48,2.48,0,0,1-.43,1.64,1.54,1.54,0,0,1-.7.53,1.27,1.27,0,0,1-.88,0,3.53,3.53,0,0,1-1.25-1c-.35-.35-.69-.71-1-1.08s-.62-.73-.91-1.09a5.93,5.93,0,0,1-.79-1.16,1.27,1.27,0,0,1,.18-1.38,1.89,1.89,0,0,1,1.19-.59,5.42,5.42,0,0,1,1.21,0c.39,0,.76.06,1.12.07a19.53,19.53,0,0,0,2.05,0,19.21,19.21,0,0,0,3.23-.53,19.83,19.83,0,0,0,2-.6C275.24,94.81,275.47,94.72,275.47,94.73Z" style="fill:#ebebeb"/></g><g id="Floor"><path d="M471.16,405.58c0,.14-99,.26-221.15.26s-221.17-.12-221.17-.26,99-.26,221.17-.26S471.16,405.43,471.16,405.58Z" style="fill:#263238"/></g><g id="Plant"><rect x="94.49" y="225.57" width="39.11" height="4.89" style="fill:#ff725e"/><polygon points="98.18 229.41 98.44 230.46 104.14 253.91 126.56 253.91 131.79 229.19 98.18 229.41" style="fill:#ff725e"/><path d="M98,230.41c0-.1,7.89-.18,17.63-.18s17.64.08,17.64.18-7.89.17-17.64.17S98,230.5,98,230.41Z" style="fill:#263238"/><path d="M87.4,217.13c-2.33,2.79-4.81,5.68-8.19,7a2.36,2.36,0,0,1-2.5-.1c-.74-.71-.39-1.95.06-2.88,1.9-3.9,4.94-7.48,9-8.92a2.71,2.71,0,0,1,2.53.08,2.3,2.3,0,0,1,.29,2.79c-.46.91-1.22,1.64-1.68,2.54" style="fill:#455a64"/><g style="opacity:0.30000000000000004"><path d="M83.1,213.61s1,2.25,5.85.27c0,0,.31-1.41-.62-1.53A6,6,0,0,0,83.1,213.61Z"/></g><path d="M108,229.41a29.87,29.87,0,0,0-1.61-3.52A17.51,17.51,0,0,0,91,217a29.77,29.77,0,0,0-3.85.36.9.9,0,0,1,.25-.09c.18,0,.43-.12.76-.19a16.44,16.44,0,0,1,2.84-.33,17.14,17.14,0,0,1,15.61,9,14.82,14.82,0,0,1,1.14,2.63,7.29,7.29,0,0,1,.21.74A.71.71,0,0,1,108,229.41Z" style="fill:#263238"/><path d="M76.41,221.43a4.26,4.26,0,0,1,1-.9,16.58,16.58,0,0,1,5.86-2.82,4.52,4.52,0,0,1,1.33-.22c0,.11-2,.56-4.24,1.66S76.48,221.52,76.41,221.43Z" style="fill:#263238"/><path d="M111.14,188.35a4.55,4.55,0,0,0,2-5,6.67,6.67,0,0,0-2.23-3.12,13.59,13.59,0,0,0-12.65-2.59,7.37,7.37,0,0,0-3.44,2.07,6.12,6.12,0,0,0-.35,6.88,9.84,9.84,0,0,0,5.8,4.21,12.22,12.22,0,0,0,10.82-2.41" style="fill:#455a64"/><g style="opacity:0.30000000000000004"><path d="M101.77,191.08s1.41-2.55,5.47-3.17,4.52,0,4.52,0a14.87,14.87,0,0,1-4.34,2.65A26.52,26.52,0,0,1,101.77,191.08Z"/></g><path d="M147.36,235.91a6.37,6.37,0,0,0-3.74-4.62l-1.12-.43a10.41,10.41,0,0,0-11.75,13.36,8.16,8.16,0,0,0,5.59,5.63,7.88,7.88,0,0,0,6.71-1.83,13,13,0,0,0,3.8-6A11.42,11.42,0,0,0,147.36,235.91Z" style="fill:#455a64"/><path d="M147.56,191.39a14.62,14.62,0,0,0-10.83,2.94,9.7,9.7,0,0,0-2.63,3,5.89,5.89,0,0,0-.69,3.85,6.18,6.18,0,0,0,2.12,3.44,12.19,12.19,0,0,0,3.56,2,25.53,25.53,0,0,0,12.17,1.65,13.36,13.36,0,0,0,4.28-1.09,6.77,6.77,0,0,0,3.19-3,6.58,6.58,0,0,0-.22-5.86,10.3,10.3,0,0,0-3.94-4.35c-1.75-1-2.34-2-7-2.6" style="fill:#455a64"/><path d="M112.51,227c-.09,0-.34-1.44-1.35-3.57a18.06,18.06,0,0,0-.92-1.68A19.47,19.47,0,0,0,109,219.9a33.82,33.82,0,0,0-3.31-3.81,80.8,80.8,0,0,0-7-6c-.92-.73-1.67-1.32-2.18-1.74a5.65,5.65,0,0,1-.77-.69,6.75,6.75,0,0,1,.85.58l2.25,1.66a67,67,0,0,1,7.09,6,31.85,31.85,0,0,1,3.33,3.87,21.65,21.65,0,0,1,1.2,1.88,15.91,15.91,0,0,1,.89,1.73,12.35,12.35,0,0,1,.59,1.49,7.54,7.54,0,0,1,.34,1.17A6.18,6.18,0,0,1,112.51,227Z" style="fill:#263238"/><path d="M135.78,233.07a3.67,3.67,0,0,1-.72-.48c-.44-.33-1.1-.8-1.92-1.34a35.74,35.74,0,0,0-14.3-5.51c-1-.15-1.77-.25-2.32-.3a5.11,5.11,0,0,1-.86-.12,3.45,3.45,0,0,1,.87,0,21.59,21.59,0,0,1,2.35.19,32.16,32.16,0,0,1,7.53,1.9,32.75,32.75,0,0,1,6.87,3.65,23.24,23.24,0,0,1,1.87,1.43A4.22,4.22,0,0,1,135.78,233.07Z" style="fill:#263238"/><path d="M142.42,220.8a5.58,5.58,0,0,1-1,.15l-2.74.33c-2.31.28-5.49.74-9,1.43s-6.6,1.49-8.84,2.11l-2.66.75a6.68,6.68,0,0,1-1,.24,5.22,5.22,0,0,1,.94-.37c.62-.23,1.51-.52,2.63-.86,2.23-.68,5.35-1.51,8.85-2.21s6.69-1.12,9-1.34c1.16-.11,2.11-.18,2.76-.21A5.55,5.55,0,0,1,142.42,220.8Z" style="fill:#263238"/><path d="M135.91,204.84a10.42,10.42,0,0,1-.73.81c-.49.51-1.18,1.25-2,2.17-1.69,1.85-4,4.47-6.45,7.37s-4.8,5.5-6.55,7.31c-.87.91-1.59,1.62-2.11,2.1a5.84,5.84,0,0,1-.82.72,5.62,5.62,0,0,1,.73-.82c.48-.5,1.18-1.24,2-2.17,1.7-1.84,4-4.46,6.46-7.37s4.8-5.5,6.54-7.31c.87-.9,1.6-1.62,2.11-2.09A6.19,6.19,0,0,1,135.91,204.84Z" style="fill:#263238"/><path d="M110.24,188.56h0Z" style="fill:#455a64"/><path d="M124.22,195.57c-.53-2.79-2.92-4.94-5.58-5.95a23.38,23.38,0,0,0-8.3-1.06,14.73,14.73,0,0,0-8.42,3.73,9,9,0,0,0-3.18,5.91c-.16,2.41,1,4.7,2.33,6.72a12.82,12.82,0,0,0,4,4.24,9.69,9.69,0,0,0,8.06.43,19.65,19.65,0,0,0,6.83-4.66,17.58,17.58,0,0,0,3.31-4.19A8.07,8.07,0,0,0,124.22,195.57Z" style="fill:#455a64"/><path d="M114.23,226.28c-.09,0-.36-3.82-.6-8.53s-.36-8.55-.26-8.55.37,3.81.61,8.53S114.33,226.27,114.23,226.28Z" style="fill:#263238"/><path d="M132.66,187.91a2.37,2.37,0,0,1-.17.39l-.54,1.09c-.48.94-1.17,2.31-2,4-1.66,3.4-3.84,8.15-6.22,13.42s-4.52,10-6.14,13.48c-.8,1.71-1.47,3.09-2,4l-.56,1.08a1.45,1.45,0,0,1-.22.37,2.56,2.56,0,0,1,.16-.4c.13-.29.29-.66.5-1.11l1.85-4.09,6-13.51c2.38-5.27,4.6-10,6.32-13.39.85-1.7,1.58-3.05,2.1-4,.24-.44.44-.79.6-1.07A1.54,1.54,0,0,1,132.66,187.91Z" style="fill:#263238"/><path d="M85.73,213.29a12.65,12.65,0,0,0,5.76-1.56c2.86-1.83,5.85-3.32,7.43-6.33a2.61,2.61,0,0,0,.3-2.36c-.5-1-1.8-1.09-2.88-1-4.36.26-8.83,1.79-11.69,5.09a5.37,5.37,0,0,0-1.55,3.67,2.6,2.6,0,0,0,2.63,2.51" style="fill:#455a64"/><path d="M95.77,206c0,.05-.74,0-1.9,0a21.9,21.9,0,0,0-4.51.6,21.51,21.51,0,0,0-4.27,1.56c-1,.51-1.67.9-1.7.85A7.13,7.13,0,0,1,85,208a17.69,17.69,0,0,1,8.89-2.19A6.92,6.92,0,0,1,95.77,206Z" style="fill:#263238"/><g style="opacity:0.30000000000000004"><path d="M99.46,234.68a6.68,6.68,0,0,0,2.31-4.31,6.61,6.61,0,0,0-.91-4.78H97.09Z"/></g><path d="M99.92,227.8a4.9,4.9,0,0,0-2.58-3.64l-2-1.11a10.06,10.06,0,0,0-7.38,0,12.09,12.09,0,0,0-5.83,4.05A7.74,7.74,0,0,0,80.82,234a7.52,7.52,0,0,0,5.07,4.72,10.55,10.55,0,0,0,7-.56,12,12,0,0,0,6.23-5.82A7.66,7.66,0,0,0,99.92,227.8Z" style="fill:#455a64"/><path d="M91.52,227.86a12.9,12.9,0,0,1-1,1.51,35.61,35.61,0,0,0-4.05,7.69,11.2,11.2,0,0,1-.67,1.68,7.89,7.89,0,0,1,.44-1.77,26.08,26.08,0,0,1,1.71-4.05,25.82,25.82,0,0,1,2.37-3.7A7.35,7.35,0,0,1,91.52,227.86Z" style="fill:#263238"/><g style="opacity:0.30000000000000004"><path d="M118.19,226.83c-3.36-1.36-7.42.37-9.52,3.32s-2.51,6.83-2,10.43a14.63,14.63,0,0,0,1.83,5.7,7.48,7.48,0,0,0,10.89,2.63,13.52,13.52,0,0,0,4.4-4.8,13.94,13.94,0,0,0,1.89-10c-.8-3.38-4-7-7.45-7.28"/></g><path d="M116.5,224.64c-3.36-1.36-7.42.36-9.52,3.32s-2.51,6.83-2,10.42a14.46,14.46,0,0,0,1.83,5.71,7.48,7.48,0,0,0,10.89,2.62,13.45,13.45,0,0,0,4.4-4.8,13.94,13.94,0,0,0,1.89-10c-.8-3.38-4-7-7.45-7.27" style="fill:#455a64"/><path d="M114.52,247.83a2.66,2.66,0,0,1-.12-.63c-.06-.41-.12-1-.19-1.75-.13-1.48-.24-3.52-.25-5.79s.09-4.32.21-5.79c.06-.74.12-1.34.18-1.75a2,2,0,0,1,.12-.64,19.11,19.11,0,0,1,0,2.4c-.06,1.48-.12,3.52-.11,5.78s.08,4.3.15,5.78A18.06,18.06,0,0,1,114.52,247.83Z" style="fill:#263238"/><path d="M141.94,248.69c-.05,0,.29-.63.5-1.68a8.67,8.67,0,0,0-.27-4.14,16.81,16.81,0,0,0-1.8-3.81,13.53,13.53,0,0,1-.91-1.52,6.7,6.7,0,0,1,1.11,1.38,14.15,14.15,0,0,1,1.94,3.85,8.17,8.17,0,0,1,.17,4.29,5.44,5.44,0,0,1-.46,1.23C142.07,248.56,142,248.7,141.94,248.69Z" style="fill:#263238"/><g style="opacity:0.30000000000000004"><path d="M140.12,230.73s1.29,6.58,7.24,5.18C147.36,235.91,147.58,230.08,140.12,230.73Z"/></g><path d="M146,215.61a9.87,9.87,0,0,0-2.93-.6,3.24,3.24,0,0,0-2.64,1.21,4.35,4.35,0,0,0-.63,2.25A27.17,27.17,0,0,0,141,228.76a10,10,0,0,0,1.57,3.24,4.44,4.44,0,0,0,3.06,1.74c1.81.11,3.41-1.25,4.42-2.77a11,11,0,0,0,1.61-8.3,10.17,10.17,0,0,0-5-6.76" style="fill:#455a64"/><path d="M157.94,197.77a11.43,11.43,0,0,1-1.91.17c-1.18.08-2.8.2-4.59.42s-3.39.48-4.55.68a11.64,11.64,0,0,1-1.89.29,9.64,9.64,0,0,1,1.84-.53,44.12,44.12,0,0,1,4.56-.79,45,45,0,0,1,4.62-.32A9.83,9.83,0,0,1,157.94,197.77Z" style="fill:#263238"/><path d="M107.68,210.1a9.65,9.65,0,0,1-.22-2.07,24.61,24.61,0,0,1,.27-5.05,15.52,15.52,0,0,1,.7-2.71,13.5,13.5,0,0,1,1-2.07,9.24,9.24,0,0,1,.87-1.27c.23-.28.36-.42.38-.41s-.44.67-1,1.8a14.79,14.79,0,0,0-.88,2.06,19.89,19.89,0,0,0-.66,2.66,31.33,31.33,0,0,0-.36,5A16.61,16.61,0,0,1,107.68,210.1Z" style="fill:#263238"/><path d="M105.22,183.44c-.08.08-1.64-1.48-3.92-2.95S97,178.22,97,178.12a4.79,4.79,0,0,1,1.38.44,19.11,19.11,0,0,1,3.1,1.64,19.73,19.73,0,0,1,2.76,2.16A5,5,0,0,1,105.22,183.44Z" style="fill:#263238"/><path d="M150.09,183.73a4.34,4.34,0,0,0-1.67-.74,28.94,28.94,0,0,0-18.06,1.09,3.67,3.67,0,0,0-1.4.83,1.37,1.37,0,0,0-.3,1.5l.11.1c.66,1,3,1.73,4.67,1.87,5.32.41,10.81.27,15.74-1.74a2.32,2.32,0,0,0,1.52-1.28A1.61,1.61,0,0,0,150.09,183.73Z" style="fill:#455a64"/></g><g id="Chair"><polygon points="278.79 354.77 285.09 433.23 278.79 433.23 269.67 354.77 278.79 354.77" style="fill:#6f4439"/><polygon points="222.45 354.56 216.15 433.01 222.45 433.01 231.57 354.56 222.45 354.56" style="fill:#6f4439"/><rect x="206.09" y="393.79" width="87.87" height="6.1" style="fill:#ae7461"/><polygon points="297.31 354.77 303.61 433.23 297.31 433.23 288.19 354.77 297.31 354.77" style="fill:#ae7461"/><path d="M309.31,236.44c-7.34-9.39-18.43-13.93-29.3-16.78a138.54,138.54,0,0,0-31-4.45v-.07l-1.32,0-1.31,0v.07a138.62,138.62,0,0,0-31,4.45c-10.86,2.85-22,7.39-29.3,16.78-9.61,12.31-12.44,49.7-8.19,65.33s7.6,32.89,16.24,46.08l54.8-8.33,57.52,8.33c2.49-3.36,8.65-33.66,12.9-49.29S318.93,248.75,309.31,236.44Z" style="fill:#455a64"/><path d="M299.38,354.78H200.63a9.14,9.14,0,0,1-9.13-9.14h0a9.13,9.13,0,0,1,9.13-9.13h98.75a9.13,9.13,0,0,1,9.13,9.13h0A9.14,9.14,0,0,1,299.38,354.78Z" style="fill:#455a64"/><path d="M300.8,336.68c0,.14-22.55.26-50.38.26s-50.38-.12-50.38-.26,22.55-.26,50.38-.26S300.8,336.53,300.8,336.68Z" style="fill:#263238"/><polygon points="204.74 354.56 198.44 433.01 204.74 433.01 213.85 354.56 204.74 354.56" style="fill:#ae7461"/><path d="M206.14,236.22a21.8,21.8,0,0,1-1.52,1.74,47.52,47.52,0,0,0-3.91,5.08,58.9,58.9,0,0,0-8.57,21.19,71.44,71.44,0,0,0-.47,24.34,70.05,70.05,0,0,0,1.48,7.17c.43,1.66.7,2.57.66,2.59a3.59,3.59,0,0,1-.25-.62c-.14-.43-.37-1-.6-1.86a59.28,59.28,0,0,1-1.65-7.17,69.5,69.5,0,0,1,.33-24.64,56.88,56.88,0,0,1,8.81-21.35,38.14,38.14,0,0,1,4.05-5c.5-.54.93-.89,1.2-1.15S206.13,236.2,206.14,236.22Z" style="fill:#263238"/><path d="M208.2,338a2.52,2.52,0,0,1-.21-.57c-.12-.44-.28-1-.48-1.67-.42-1.52-1-3.6-1.7-6.15-1.43-5.19-3.39-12.37-5.93-20.19a36.83,36.83,0,0,0-2.2-5.53,13.83,13.83,0,0,0-3.28-4.36,8.58,8.58,0,0,0-4.44-2,11.17,11.17,0,0,0-4.27.41,26.36,26.36,0,0,0-5.75,2.64l-1.48.89a2.06,2.06,0,0,1-.54.29,3.43,3.43,0,0,1,.48-.37c.32-.24.8-.57,1.44-1a23.79,23.79,0,0,1,5.74-2.82,11.28,11.28,0,0,1,4.43-.49,9,9,0,0,1,4.7,2,14.41,14.41,0,0,1,3.43,4.48,37,37,0,0,1,2.23,5.61c2.55,7.83,4.45,15,5.8,20.25.63,2.57,1.16,4.67,1.54,6.2.15.69.28,1.25.39,1.69A3.61,3.61,0,0,1,208.2,338Z" style="fill:#263238"/><path d="M288.06,235.75s.16.09.45.32.73.56,1.26,1.05a37,37,0,0,1,4.26,4.6,54.46,54.46,0,0,1,9.73,20.55,69.5,69.5,0,0,1,1.4,24.58,59.52,59.52,0,0,1-1.33,7.29c-.2.84-.4,1.47-.52,1.91a3.86,3.86,0,0,1-.22.64,26.51,26.51,0,0,1,.55-2.64,73.56,73.56,0,0,0,1.15-7.28,71,71,0,0,0-1.53-24.26,56.12,56.12,0,0,0-9.48-20.41,42.54,42.54,0,0,0-4.13-4.74A16.65,16.65,0,0,1,288.06,235.75Z" style="fill:#263238"/><path d="M291.16,337.61a2.26,2.26,0,0,1,.06-.6c.08-.45.17-1,.29-1.71.28-1.55.68-3.68,1.15-6.28,1-5.29,2.49-12.6,4.55-20.57a37,37,0,0,1,1.88-5.73,14.23,14.23,0,0,1,3.15-4.69,8.86,8.86,0,0,1,4.56-2.32,11.31,11.31,0,0,1,4.46.21,24,24,0,0,1,5.9,2.47c.66.37,1.16.67,1.5.88a4.12,4.12,0,0,1,.5.35,2.26,2.26,0,0,1-.55-.25l-1.54-.8a25.7,25.7,0,0,0-5.9-2.29,11.1,11.1,0,0,0-4.29-.15,8.57,8.57,0,0,0-4.31,2.24,13.9,13.9,0,0,0-3,4.55,37.51,37.51,0,0,0-1.85,5.66c-2,7.95-3.57,15.24-4.68,20.51-.55,2.59-1,4.7-1.32,6.25l-.39,1.69A3.07,3.07,0,0,1,291.16,337.61Z" style="fill:#263238"/></g><g id="Device"><rect x="297.54" y="203.61" width="101.04" height="75.88" rx="4.4" style="fill:#e0e0e0"/><path d="M394.17,279.49s.31,0,.88-.11a4.39,4.39,0,0,0,3.22-2.88,6.12,6.12,0,0,0,.23-2.28q0-2.54,0-5.82c0-8.78,0-21.45-.08-37.11,0-3.91,0-8,0-12.29v-6.54c0-1.11,0-2.23,0-3.36a13.24,13.24,0,0,0-.05-1.68,4,4,0,0,0-.53-1.53A4.24,4.24,0,0,0,395.2,204a6.75,6.75,0,0,0-1.7-.13H369.34l-67.39,0a4.14,4.14,0,0,0-3.52,2,4,4,0,0,0-.62,2c0,.71,0,1.47,0,2.2v8.8q0,8.73,0,17.19c0,11.27,0,22.14,0,32.5v5.77a7.26,7.26,0,0,0,.12,1.83,4.15,4.15,0,0,0,3.83,3.16c.59,0,1.23,0,1.84,0l14.27,0,25.62,0,37.11.08,10.08.05,2.63,0c.59,0,.89,0,.89,0l-.89,0-2.63,0-10.08,0-37.11.09-25.62,0H303.57c-.62,0-1.22,0-1.86,0a4.61,4.61,0,0,1-4.26-3.5,7.69,7.69,0,0,1-.15-1.95v-5.77c0-10.36,0-21.23,0-32.5V210c0-.74,0-1.46,0-2.23a4.5,4.5,0,0,1,.7-2.22,4.68,4.68,0,0,1,4-2.2l67.39,0H393.5a7,7,0,0,1,1.8.15,4.6,4.6,0,0,1,2.85,2.13,4.49,4.49,0,0,1,.59,1.69,14.68,14.68,0,0,1,.05,1.74c0,1.13,0,2.25,0,3.36V219c0,4.27,0,8.38,0,12.29,0,15.66-.06,28.33-.08,37.11q0,3.28,0,5.82a6.26,6.26,0,0,1-.26,2.33,4.52,4.52,0,0,1-1,1.65,4.45,4.45,0,0,1-2.3,1.23A3.33,3.33,0,0,1,394.17,279.49Z" style="fill:#263238"/><path d="M340.72,255.55l4.85,35.26s-23.4-1.54-24.54,2.71H372.4l-9.7-38.69Z" style="fill:#e0e0e0"/><path d="M321,293.52s0,0,0-.13a1.12,1.12,0,0,1,.14-.36,2.49,2.49,0,0,1,1.14-.92,18.24,18.24,0,0,1,5.23-1.25c4.51-.77,10.9-.59,18-.31l-.27.3-.47-3.41-2.7-20.17c-.32-2.53-.57-4.61-.76-6.12l-.18-1.67a2.12,2.12,0,0,1,0-.58,2.26,2.26,0,0,1,.13.57c.08.43.17,1,.28,1.65.23,1.51.54,3.58.92,6.1.74,5.22,1.74,12.31,2.85,20.15l.47,3.4,0,.31h-.31c-7.13-.3-13.47-.54-18,.13a19.56,19.56,0,0,0-5.19,1.08,2.45,2.45,0,0,0-1.14.81C321.08,293.34,321.06,293.53,321,293.52Z" style="fill:#263238"/><path d="M343.93,257.05a1.38,1.38,0,0,1,.37,0l1.09,0,4.09-.07,14.14-.09h.19l.05.2c.65,2.69,1.36,5.61,2.1,8.65,1.81,7.66,3.45,14.58,4.66,19.68.56,2.47,1,4.5,1.35,6,.14.66.26,1.2.35,1.63a2.23,2.23,0,0,1,.08.58,2.7,2.7,0,0,1-.19-.55c-.11-.43-.26-1-.43-1.61-.38-1.47-.89-3.48-1.52-5.94-1.25-5.09-2.94-12-4.81-19.64l-2.07-8.67.24.19-14.14-.09-4.09-.07-1.09,0C344.06,257.08,343.93,257.07,343.93,257.05Z" style="fill:#263238"/><g style="opacity:0.2"><path d="M297.54,209.07v65a5.45,5.45,0,0,0,5.46,5.46V203.61A5.46,5.46,0,0,0,297.54,209.07Z"/></g></g><g id="Picture"><rect x="352.49" y="69.9" width="80.74" height="104.28" style="fill:#455a64"/><path d="M433.23,69.9a1.55,1.55,0,0,1-.22.28l-.69.78-2.73,3,0,0h-.06c-7,.07-20.81.12-36.64.12s-29.63,0-36.65-.12h0l0,0-2.73-3-.69-.78c-.16-.18-.23-.27-.22-.28l.26.24c.19.19.43.44.74.74.66.7,1.6,1.67,2.8,2.92l-.08,0c7-.07,20.81-.12,36.65-.12s29.63,0,36.64.12l-.08,0,2.81-2.92.73-.74Z" style="fill:#263238"/><path d="M352.49,174.19s.06-.11.22-.28l.69-.79,2.73-3,0,0h0c7-.07,20.81-.12,36.65-.12s29.63.05,36.64.12h.06l0,0,2.73,3,.69.79a1.22,1.22,0,0,1,.22.28L433,174l-.73-.74-2.81-2.92.08,0c-7,.07-20.81.12-36.64.12s-29.63,0-36.65-.12l.08,0c-1.2,1.25-2.14,2.22-2.8,2.92-.31.3-.55.55-.74.74Z" style="fill:#263238"/><rect x="356.21" y="73.88" width="73.3" height="96.34" style="fill:#fff"/><path d="M367.68,142c2.18-2.08,5.4-2.66,8.41-2.59s6,.71,9,.68c4.82-.07,9.61-1.85,14.36-1,1.51.26,3.05.79,4.56.46,1.31-.28,2.42-1.18,3.71-1.56,3.34-1,7.11,1.62,10.32.25v21.51H367.68Z" style="fill:#ff725e"/><path d="M368.69,142.91c-.13,0-.23-12.74-.23-28.45s.1-28.46.23-28.46.24,12.74.24,28.46S368.82,142.91,368.69,142.91Z" style="fill:#263238"/><path d="M371,142.91c-.13,0-.24-12.74-.24-28.45S370.86,86,371,86s.23,12.74.23,28.46S371.11,142.91,371,142.91Z" style="fill:#263238"/><path d="M373.28,142.91c-.13,0-.24-12.74-.24-28.45s.11-28.46.24-28.46.23,12.74.23,28.46S373.41,142.91,373.28,142.91Z" style="fill:#263238"/><path d="M375.57,142.91c-.13,0-.23-12.74-.23-28.45s.1-28.46.23-28.46.23,12.74.23,28.46S375.7,142.91,375.57,142.91Z" style="fill:#263238"/><path d="M377.86,142.91c-.13,0-.23-12.74-.23-28.45s.1-28.46.23-28.46.24,12.74.24,28.46S378,142.91,377.86,142.91Z" style="fill:#263238"/><path d="M380.16,142.91c-.13,0-.24-12.74-.24-28.45S380,86,380.16,86s.23,12.74.23,28.46S380.29,142.91,380.16,142.91Z" style="fill:#263238"/><path d="M382.45,142.91c-.13,0-.23-12.74-.23-28.45s.1-28.46.23-28.46.23,12.74.23,28.46S382.58,142.91,382.45,142.91Z" style="fill:#263238"/><path d="M384.74,142.91c-.13,0-.23-12.74-.23-28.45s.1-28.46.23-28.46.24,12.74.24,28.46S384.87,142.91,384.74,142.91Z" style="fill:#263238"/><path d="M387,142.91c-.12,0-.23-12.74-.23-28.45S386.91,86,387,86s.24,12.74.24,28.46S387.16,142.91,387,142.91Z" style="fill:#263238"/><path d="M389.33,142.91c-.13,0-.24-12.74-.24-28.45S389.2,86,389.33,86s.23,12.74.23,28.46S389.46,142.91,389.33,142.91Z" style="fill:#263238"/><path d="M391.62,142.91c-.13,0-.23-12.74-.23-28.45s.1-28.46.23-28.46.23,12.74.23,28.46S391.75,142.91,391.62,142.91Z" style="fill:#263238"/><path d="M393.91,142.91c-.13,0-.23-12.74-.23-28.45s.1-28.46.23-28.46.24,12.74.24,28.46S394,142.91,393.91,142.91Z" style="fill:#263238"/><path d="M396.21,142.91c-.13,0-.24-12.74-.24-28.45s.11-28.46.24-28.46.23,12.74.23,28.46S396.33,142.91,396.21,142.91Z" style="fill:#263238"/><path d="M398.5,142.91c-.13,0-.24-12.74-.24-28.45S398.37,86,398.5,86s.23,12.74.23,28.46S398.63,142.91,398.5,142.91Z" style="fill:#263238"/><path d="M400.79,142.91c-.13,0-.23-12.74-.23-28.45s.1-28.46.23-28.46.23,12.74.23,28.46S400.92,142.91,400.79,142.91Z" style="fill:#263238"/><path d="M403.08,142.91c-.13,0-.23-12.74-.23-28.45S403,86,403.08,86s.24,12.74.24,28.46S403.21,142.91,403.08,142.91Z" style="fill:#263238"/><path d="M405.38,142.91c-.13,0-.24-12.74-.24-28.45s.11-28.46.24-28.46.23,12.74.23,28.46S405.51,142.91,405.38,142.91Z" style="fill:#263238"/><path d="M407.67,142.91c-.13,0-.24-12.74-.24-28.45s.11-28.46.24-28.46.23,12.74.23,28.46S407.8,142.91,407.67,142.91Z" style="fill:#263238"/><path d="M410,142.91c-.13,0-.23-12.74-.23-28.45S409.83,86,410,86s.24,12.74.24,28.46S410.09,142.91,410,142.91Z" style="fill:#263238"/><path d="M412.25,142.91c-.12,0-.23-12.74-.23-28.45s.11-28.46.23-28.46.24,12.74.24,28.46S412.38,142.91,412.25,142.91Z" style="fill:#263238"/><path d="M414.55,142.91c-.13,0-.24-12.74-.24-28.45s.11-28.46.24-28.46.23,12.74.23,28.46S414.68,142.91,414.55,142.91Z" style="fill:#263238"/><path d="M416.84,142.91c-.13,0-.23-12.74-.23-28.45s.1-28.46.23-28.46.23,12.74.23,28.46S417,142.91,416.84,142.91Z" style="fill:#263238"/></g><g id="Clock"><circle cx="112.76" cy="71.28" r="31.92" style="fill:#ff725e"/><circle cx="112.76" cy="71.28" r="29.61" style="fill:#fff"/><g style="opacity:0.30000000000000004"><path d="M86,70.56A30.26,30.26,0,0,1,103.82,43a29.62,29.62,0,0,0,8.94,57.85c.59,0,1.16,0,1.74,0A30.25,30.25,0,0,1,86,70.56Z"/></g><path d="M142.38,71.28s0-.17,0-.48,0-.79-.07-1.41a28.88,28.88,0,0,0-.85-5.34,29.55,29.55,0,0,0-10.79-16.28,29.53,29.53,0,0,0-20.05-5.93,28.8,28.8,0,0,0-4,.56,31.34,31.34,0,0,0-3.94,1.12A29.57,29.57,0,0,0,89,53.82a27.86,27.86,0,0,0-2.41,3.87c-.36.68-.67,1.38-1,2.09S85,61.21,84.76,62a29.49,29.49,0,0,0,0,18.63c.24.74.53,1.46.82,2.18s.62,1.41,1,2.09A28.89,28.89,0,0,0,89,88.74,29.69,29.69,0,0,0,102.7,99a31.4,31.4,0,0,0,3.94,1.13,30.38,30.38,0,0,0,4,.55,29.12,29.12,0,0,0,7.62-.42A28.35,28.35,0,0,0,125,98.15a28.64,28.64,0,0,0,5.64-3.37,30,30,0,0,0,7.52-8.4,29.46,29.46,0,0,0,3.27-7.88,28.88,28.88,0,0,0,.85-5.34c.06-.61.05-1.09.07-1.4s0-.48,0-.48,0,.65,0,1.89a29.39,29.39,0,0,1-4.06,13.27,30,30,0,0,1-7.52,8.46,29.61,29.61,0,0,1-20.16,6,28.87,28.87,0,0,1-4-.56,30.35,30.35,0,0,1-4-1.13A29.82,29.82,0,0,1,86.38,85c-.36-.68-.68-1.4-1-2.11s-.58-1.44-.82-2.19a29.73,29.73,0,0,1,0-18.77c.24-.75.54-1.47.83-2.2s.63-1.42,1-2.1a29.82,29.82,0,0,1,16.25-14.25,30.65,30.65,0,0,1,4-1.13,29.54,29.54,0,0,1,24.14,5.45,29.73,29.73,0,0,1,7.53,8.45,29.28,29.28,0,0,1,4.06,13.28C142.4,70.63,142.38,71.28,142.38,71.28Z" style="fill:#263238"/><path d="M112.87,46.42v4.86h-.5V46.87h-1.14v-.45Z" style="fill:#263238"/><path d="M117.34,50.83v.45h-3.4v-.36l2-2c.54-.54.65-.87.65-1.2,0-.56-.4-.91-1.14-.91a1.63,1.63,0,0,0-1.32.54l-.36-.31a2.2,2.2,0,0,1,1.72-.69c1,0,1.61.5,1.61,1.31a2,2,0,0,1-.8,1.52l-1.65,1.62Z" style="fill:#263238"/><path d="M125.91,50v4.85h-.5V50.48h-1.14V50Z" style="fill:#263238"/><path d="M101.32,50v4.85h-.49V50.48H99.68V50Z" style="fill:#263238"/><path d="M103.83,50v4.85h-.5V50.48h-1.15V50Z" style="fill:#263238"/><path d="M135.14,61.34v.44h-3.41v-.35l2-2c.55-.54.65-.86.65-1.19,0-.57-.39-.91-1.14-.91a1.64,1.64,0,0,0-1.32.54l-.35-.31a2.17,2.17,0,0,1,1.72-.69c1,0,1.6.5,1.6,1.31a2,2,0,0,1-.79,1.52l-1.65,1.62Z" style="fill:#263238"/><path d="M92.22,57.5v4.85h-.5V57.94H90.58V57.5Z" style="fill:#263238"/><path d="M93.38,59.92c0-1.54.81-2.47,1.93-2.47s2,.93,2,2.47-.82,2.47-2,2.47S93.38,61.47,93.38,59.92Zm3.36,0c0-1.29-.58-2-1.43-2s-1.42.72-1.42,2,.58,2,1.42,2S96.74,61.22,96.74,59.92Z" style="fill:#263238"/><path d="M137.18,72.39c0,.81-.58,1.43-1.76,1.43a2.5,2.5,0,0,1-1.74-.62l.24-.4a2.1,2.1,0,0,0,1.5.57c.81,0,1.25-.38,1.25-1s-.41-1-1.31-1H135v-.37l1.35-1.69h-2.48v-.44H137v.35L135.62,71C136.66,71.06,137.18,71.61,137.18,72.39Z" style="fill:#263238"/><path d="M91.87,71.31c0,1.65-.91,2.51-2.22,2.51a2.18,2.18,0,0,1-1.15-.26l.2-.4a1.66,1.66,0,0,0,.94.23c1,0,1.72-.68,1.72-2,0-.11,0-.25,0-.4a1.54,1.54,0,0,1-1.49.83,1.46,1.46,0,0,1-1.63-1.45,1.51,1.51,0,0,1,1.66-1.49C91.17,68.89,91.87,69.78,91.87,71.31Zm-.69-1c0-.53-.44-1-1.28-1a1.07,1.07,0,0,0-1.19,1c0,.64.47,1,1.22,1A1.13,1.13,0,0,0,91.18,70.35Z" style="fill:#263238"/><path d="M95.83,82.18c0,.86-.73,1.4-1.89,1.4s-1.87-.54-1.87-1.4A1.22,1.22,0,0,1,93,81a1.09,1.09,0,0,1-.76-1.07c0-.79.67-1.28,1.69-1.28s1.72.49,1.72,1.28A1.1,1.1,0,0,1,94.88,81,1.22,1.22,0,0,1,95.83,82.18Zm-.51,0c0-.6-.52-1-1.38-1s-1.36.37-1.36,1,.51,1,1.36,1S95.32,82.78,95.32,82.18Zm-1.38-1.37c.76,0,1.21-.34,1.21-.87s-.48-.88-1.21-.88-1.19.34-1.19.88S93.19,80.81,93.94,80.81Z" style="fill:#263238"/><path d="M103.6,87.34v.35l-2,4.5H101l2-4.41h-2.5v.91H100V87.34Z" style="fill:#263238"/><path d="M126,90.77c0,.82-.58,1.47-1.76,1.47a2.51,2.51,0,0,1-1.74-.63l.24-.39a2.13,2.13,0,0,0,1.49.56c.83,0,1.26-.4,1.26-1s-.39-1-1.62-1h-1l.25-2.43h2.65v.44h-2.22l-.16,1.55h.62C125.4,89.33,126,89.91,126,90.77Z" style="fill:#263238"/><path d="M114.84,93.9a1.51,1.51,0,0,1-1.66,1.49c-1.29,0-2-.89-2-2.42s.9-2.51,2.22-2.51a2.18,2.18,0,0,1,1.15.26l-.2.4a1.75,1.75,0,0,0-.94-.23c-1,0-1.72.68-1.72,2,0,.12,0,.25,0,.4a1.55,1.55,0,0,1,1.48-.83A1.47,1.47,0,0,1,114.84,93.9Zm-.49,0c0-.64-.47-1-1.22-1a1.12,1.12,0,0,0-1.25,1.06c0,.54.44,1,1.28,1A1.07,1.07,0,0,0,114.35,93.92Z" style="fill:#263238"/><path d="M135.14,82.26h-1v1.28h-.5V82.26h-2.74V81.9l2.57-3.22h.55l-2.48,3.14h2.11V80.69h.49v1.13h1Z" style="fill:#263238"/><path d="M112.53,56.65c-.09.14-1.11,18.16-1.11,18.16l2,.11s-.16-18.11-.22-18.2Z" style="fill:#263238"/><polygon points="108.14 69.11 107.47 70.96 129.44 78.84 129.73 78.22 108.14 69.11" style="fill:#263238"/><path d="M117.86,67.59a.29.29,0,0,0-.41,0l-3.5,2.6.08.11L100.77,80.34a.82.82,0,0,0,.1.17s13.35-10,13.35-10l.09.11L117.8,68a.3.3,0,0,0,.06-.42Z" style="fill:#ff725e"/><path d="M112.76,72.28a.6.6,0,0,1-.82-.12.59.59,0,0,1,.13-.82.58.58,0,0,1,.81.13A.59.59,0,0,1,112.76,72.28Z" style="fill:#455a64"/></g><g id="Desk"><rect x="394.47" y="298.14" width="7.64" height="145.84" style="fill:#263238"/><rect x="88.19" y="299.41" width="7.64" height="145.01" style="fill:#263238"/><rect x="66.37" y="293.52" width="355.25" height="16.59" style="fill:#ae7461"/><rect x="80.47" y="286.89" width="60.47" height="6.82" style="fill:#455a64"/><rect x="80.47" y="287.74" width="59.49" height="5.09" style="fill:#f5f5f5"/><g style="opacity:0.30000000000000004"><rect x="129.19" y="286.89" width="11.75" height="6.82"/></g><path d="M140,288.85h-2.34l-6.38,0H89.12l-6.38,0h6.38l21.06,0,21,0H140Z" style="fill:#263238"/><path d="M140,290.21h0Z" style="fill:#263238"/><path d="M140,291.57h0Z" style="fill:#263238"/><path d="M129.22,293.59s0-1.48,0-3.31,0-3.32,0-3.32,0,1.49,0,3.32S129.24,293.59,129.22,293.59Z" style="fill:#263238"/><rect x="125.88" y="270.3" width="19.12" height="6.71" transform="translate(270.88 547.31) rotate(180)" style="fill:#ebebeb"/><rect x="85.74" y="269.15" width="60.06" height="1.41" transform="translate(231.53 539.7) rotate(180)" style="fill:#455a64"/><rect x="85.74" y="276.71" width="59.79" height="1.41" transform="translate(231.26 554.82) rotate(180)" style="fill:#455a64"/><polygon points="125.88 269.48 125.79 277.85 85.74 277.85 85.74 269.48 125.88 269.48" style="fill:#455a64"/><ellipse cx="118.31" cy="273.66" rx="2.16" ry="2.08" style="fill:#263238"/><path d="M115.81,273.65a2.5,2.5,0,1,1,2.5,2.39A2.45,2.45,0,0,1,115.81,273.65Zm.67,0a1.83,1.83,0,1,0,1.83-1.78A1.81,1.81,0,0,0,116.48,273.65Z" style="fill:#e0e0e0"/><path d="M127.31,275.36c0,.09,3.93.16,8.78.16s8.78-.07,8.78-.16-3.93-.15-8.78-.15S127.31,275.28,127.31,275.36Z" style="fill:#263238"/><path d="M127.31,274.19c0,.09,3.93.16,8.78.16s8.78-.07,8.78-.16-3.93-.15-8.78-.15S127.31,274.11,127.31,274.19Z" style="fill:#263238"/><path d="M127.31,273c0,.08,3.93.15,8.78.15s8.78-.07,8.78-.15-3.93-.16-8.78-.16S127.31,272.94,127.31,273Z" style="fill:#263238"/><path d="M127.31,271.86c0,.08,3.93.15,8.78.15s8.78-.07,8.78-.15-3.93-.16-8.78-.16S127.31,271.77,127.31,271.86Z" style="fill:#263238"/><rect x="90.18" y="271.26" width="18.05" height="4.48" transform="translate(198.4 547) rotate(180)" style="fill:#fff"/><path d="M105.41,275.28a8.89,8.89,0,0,0,0-3.56,9.4,9.4,0,0,0,0,3.56Z" style="fill:#e0e0e0"/><path d="M103,275.28a9.4,9.4,0,0,0,0-3.56,8.89,8.89,0,0,0,0,3.56Z" style="fill:#e0e0e0"/><path d="M100.64,275.28a8.89,8.89,0,0,0,0-3.56,9.4,9.4,0,0,0,0,3.56Z" style="fill:#e0e0e0"/><path d="M98.26,275.28a9.4,9.4,0,0,0,0-3.56,8.89,8.89,0,0,0,0,3.56Z" style="fill:#e0e0e0"/><path d="M95.87,275.28a9.4,9.4,0,0,0,0-3.56,8.89,8.89,0,0,0,0,3.56Z" style="fill:#e0e0e0"/><path d="M93.48,275.28a8.89,8.89,0,0,0,0-3.56,9.4,9.4,0,0,0,0,3.56Z" style="fill:#e0e0e0"/><path d="M125.61,278.09a58.07,58.07,0,0,0,0-8.88,54.85,54.85,0,0,0,0,8.88Z" style="fill:#263238"/><polygon points="87.77 256.1 87.77 253.91 139.1 254.01 142.07 254.01 142.07 256.13 139.1 256.13 139.1 269.21 83.66 269.21 83.66 256.1 87.77 256.1" style="fill:#f5f5f5"/><polygon points="100.36 269.21 100.36 253.91 87.77 253.91 87.77 256.1 83.66 256.1 83.66 269.21 100.36 269.21" style="fill:#ebebeb"/><path d="M87.77,253.91c0,.09,12,.16,26.92.16s26.92-.07,26.92-.16-12.05-.15-26.92-.15S87.77,253.83,87.77,253.91Z" style="fill:#e0e0e0"/><path d="M84.08,260.79c0,.08,12.27.15,27.41.15s27.41-.07,27.41-.15-12.27-.16-27.41-.16S84.08,260.7,84.08,260.79Z" style="fill:#e0e0e0"/><path d="M83.66,265.47c0,.09,12.37.16,27.62.16s27.62-.07,27.62-.16-12.36-.15-27.62-.15S83.66,265.39,83.66,265.47Z" style="fill:#e0e0e0"/><path d="M141.61,256.1c0-.09-12.06-.16-26.92-.16s-26.92.07-26.92.16,12,.15,26.92.15S141.61,256.19,141.61,256.1Z" style="fill:#e0e0e0"/><rect x="123.34" y="279.02" width="19.12" height="6.71" transform="translate(265.8 564.75) rotate(180)" style="fill:#ebebeb"/><rect x="83.19" y="277.87" width="60.06" height="1.41" transform="translate(226.45 557.14) rotate(180)" style="fill:#ff725e"/><rect x="83.19" y="285.43" width="59.79" height="1.41" transform="translate(226.17 572.26) rotate(180)" style="fill:#ff725e"/><polygon points="123.34 278.2 123.25 286.56 83.19 286.56 83.19 278.2 123.34 278.2" style="fill:#ff725e"/><path d="M113.6,282.37a2.17,2.17,0,1,0,2.17-2.08A2.13,2.13,0,0,0,113.6,282.37Z" style="fill:#263238"/><path d="M113.27,282.37a2.5,2.5,0,1,1,2.5,2.39A2.45,2.45,0,0,1,113.27,282.37Zm.67,0a1.83,1.83,0,1,0,1.83-1.78A1.81,1.81,0,0,0,113.94,282.37Z" style="fill:#e0e0e0"/><path d="M124.77,284.08c0,.09,3.93.16,8.78.16s8.78-.07,8.78-.16-3.93-.15-8.78-.15S124.77,284,124.77,284.08Z" style="fill:#263238"/><path d="M124.77,282.91c0,.09,3.93.16,8.78.16s8.78-.07,8.78-.16-3.93-.15-8.78-.15S124.77,282.83,124.77,282.91Z" style="fill:#263238"/><path d="M124.77,281.75c0,.08,3.93.15,8.78.15s8.78-.07,8.78-.15-3.93-.16-8.78-.16S124.77,281.66,124.77,281.75Z" style="fill:#263238"/><path d="M124.77,280.58c0,.08,3.93.15,8.78.15s8.78-.07,8.78-.15-3.93-.16-8.78-.16S124.77,280.49,124.77,280.58Z" style="fill:#263238"/><rect x="87.64" y="279.98" width="18.05" height="4.48" transform="translate(193.32 564.44) rotate(180)" style="fill:#fff"/><path d="M102.87,284a8.94,8.94,0,0,0,0-3.57,9.46,9.46,0,0,0,0,3.57Z" style="fill:#e0e0e0"/><path d="M100.49,284a9.46,9.46,0,0,0,0-3.57,8.94,8.94,0,0,0,0,3.57Z" style="fill:#e0e0e0"/><path d="M98.1,284a8.94,8.94,0,0,0,0-3.57,9.46,9.46,0,0,0,0,3.57Z" style="fill:#e0e0e0"/><path d="M95.71,284a8.94,8.94,0,0,0,0-3.57,9.46,9.46,0,0,0,0,3.57Z" style="fill:#e0e0e0"/><path d="M93.33,284a9.46,9.46,0,0,0,0-3.57,8.94,8.94,0,0,0,0,3.57Z" style="fill:#e0e0e0"/><path d="M90.94,284a8.94,8.94,0,0,0,0-3.57,9.46,9.46,0,0,0,0,3.57Z" style="fill:#e0e0e0"/><path d="M123.07,286.81a58.07,58.07,0,0,0,0-8.88,54.85,54.85,0,0,0,0,8.88Z" style="fill:#263238"/><g style="opacity:0.2"><path d="M256.83,310.11s25.13-16.59,16.28-16.59H260.75Z"/></g></g><g id="Character"><path d="M183.74,430.86,171.29,457.1l-15.67,17.81a3.06,3.06,0,0,0,.36,4.37h0a2.84,2.84,0,0,0,2.61.53c5.76-1.74,26.92-8.23,27.72-10.2.94-2.29,14.92-26.78,14.92-26.78Z" style="fill:#263238"/><g style="opacity:0.30000000000000004"><path d="M183.74,430.86,171.29,457.1l-15.67,17.81a3.06,3.06,0,0,0,.36,4.37h0a2.84,2.84,0,0,0,2.61.53c5.76-1.74,26.92-8.23,27.72-10.2.94-2.29,14.92-26.78,14.92-26.78Z"/></g><path d="M156,479.28l31.21-11.43-.55,1.1c-.48.95-.47,1.26-1.43,1.66a266.18,266.18,0,0,1-27.32,9.77c-.93.29-1.91-1.1-1.91-1.1Z" style="fill:#455a64"/><path d="M188.49,406.72s6-16.4,6.52-21.36,2.9-16.14,4.86-26.4,8.88-37.16,8.88-37.16l8.44-65.32L264,255.26s0,30.28-5.26,47.45c-4.41,14.5-30.49,67.07-33,82.62s-33.08,76.51-33.08,76.51l-22.16-11.13Z" style="fill:#263238"/><path d="M174,431.81l8.18,22.76s-20.37,15.18-19.46,19.57l43.89-12.59-11.36-35.07Z" style="fill:#263238"/><path d="M174,431.81l.35-.11,1.07-.29,4.17-1.09,15.62-4,.16,0,.06.16c3,9.28,7,21.41,11.42,35.05l.08.25-.25.07-18.8,5.4-25.09,7.19-.27.08,0-.27a3.34,3.34,0,0,1,.49-2.05,12.61,12.61,0,0,1,1.09-1.67,32.24,32.24,0,0,1,2.53-2.9c1.76-1.81,3.57-3.45,5.34-5,3.56-3.08,7-5.79,10.14-8.16l-.07.22c-2.48-7.06-4.5-12.77-5.9-16.75l-1.58-4.53-.4-1.17-.12-.38a2.5,2.5,0,0,1,.17.41l.45,1.19,1.68,4.53,6.06,16.57,0,.13-.11.08c-3.13,2.39-6.54,5.11-10.07,8.19-1.76,1.55-3.55,3.19-5.29,5a31.11,31.11,0,0,0-2.49,2.86,10.47,10.47,0,0,0-1,1.61,2.88,2.88,0,0,0-.45,1.72l-.31-.18,25.08-7.22,18.81-5.38-.17.32-11.29-35.1.22.12-15.56,3.8-4.23,1-1.11.25Z" style="fill:#455a64"/><path d="M206.6,461.55l-1.11-3.63-41.66,13.43s-1.72,1.44-1.12,2.79Z" style="fill:#455a64"/><path d="M179.16,290.14c-.55,1.31-23.25,59.5-22.74,68.13s20.64,94.61,20.64,94.61l26.32-8.57s-3.37-24.39-7.49-45.59c-3.89-20-3.2-24.47-3.2-24.47s-5.49-6.9-4.53-6.64,3.1-.18,3-1.78a20.45,20.45,0,0,0-1.2-4.43L208.78,324l15.61-68-35.48,1.77Z" style="fill:#263238"/><path d="M217.61,287.94a2.09,2.09,0,0,1-.06.58c-.07.38-.16.93-.32,1.64-.3,1.41-.77,3.44-1.39,5.95-1.24,5-3,11.91-5.07,19.51-3.9,14.6-6.64,24.88-7.35,27.55a2.49,2.49,0,0,1,.07-.58c.06-.37.15-.93.31-1.63.3-1.42.78-3.45,1.4-6,1.24-5,3-11.9,5.07-19.51Z" style="fill:#455a64"/><path d="M214.73,299.34a48.88,48.88,0,0,1-5.52-4.37,46.27,46.27,0,0,1-5.18-4.76,48,48,0,0,1,5.52,4.36A48,48,0,0,1,214.73,299.34Z" style="fill:#455a64"/><path d="M190,361.4l.11.26c.08.2.18.45.3.79a15.34,15.34,0,0,1,.84,3.17,1.69,1.69,0,0,1-.21,1.14,2.16,2.16,0,0,1-1,.79,3.53,3.53,0,0,1-1.39.23,2.32,2.32,0,0,1-.38,0c-.07,0-.13,0-.06,0a.43.43,0,0,0,0,.09,3.8,3.8,0,0,0,.36.65c1.12,1.74,2.61,3.63,4.27,5.73l0,0v.07a40,40,0,0,0,.31,6.22c.23,2.22.57,4.58,1,7.07.76,5,1.87,10.45,3,16.38,2.21,11.86,4.44,25.54,6.55,40.33l0,.21-.21.07L186,450.25l-8.85,2.88-.27.09-.06-.28c-6.17-26.47-11.5-50.09-15.16-67.12-1.83-8.52-3.24-15.38-4.12-20.14-.43-2.38-.75-4.22-.91-5.48l-.16-1.44c0-.32,0-.49,0-.49s0,.17.09.49l.21,1.42c.19,1.26.54,3.09,1,5.47.93,4.74,2.4,11.59,4.27,20.1,3.75,17,9.15,40.61,15.32,67.07l-.33-.18,8.85-2.89,17.47-5.69-.17.28c-2.09-14.78-4.3-28.46-6.46-40.32-1.1-5.93-2.19-11.41-2.93-16.4-.38-2.5-.7-4.87-.93-7.1a40.22,40.22,0,0,1-.26-6.29l0,.11c-1.65-2.13-3.11-4-4.24-5.79a4.63,4.63,0,0,1-.36-.7.34.34,0,0,1,0-.27.17.17,0,0,1,.18-.07l.1,0a2,2,0,0,0,.35.05,3.17,3.17,0,0,0,1.31-.21,1.87,1.87,0,0,0,1-.7,1.48,1.48,0,0,0,.2-1,16.8,16.8,0,0,0-.76-3.16l-.26-.79A1.07,1.07,0,0,1,190,361.4Z" style="fill:#455a64"/><g style="opacity:0.30000000000000004"><polygon points="181.09 451.57 181.81 453.58 202.31 448.3 201.23 445.01 181.09 451.57"/></g><g style="opacity:0.30000000000000004"><path d="M187.36,367.32a15.9,15.9,0,0,0-9.25-2.8,2,2,0,0,0-1,.19.82.82,0,0,0-.44.87c.13.44.68.58,1.14.63l9.73,1.17"/></g><path d="M189.12,165.1l19.24-7.32,5.14-6,24.09-2.34,10,8.85s19.65,4.69,20.56,7S259,228.54,259,228.54s-.55,33.65-3.49,35-42.22,15.81-59-1.23c-.31-.32-5.12-76.48-5.34-77.16S189.12,165.1,189.12,165.1Z" style="fill:#fff"/><g style="opacity:0.30000000000000004"><polygon points="207.9 254.71 215.25 266.52 224.96 254.71 224.1 230.51 223.3 235.49 207.9 254.71"/></g><polygon points="219.64 172.31 206.94 253.4 214.25 263.36 223.76 253.84 224.96 172.31 219.64 172.31" style="fill:#ff725e"/><polyline points="217.6 168.35 219.64 172.31 224.96 172.31 226.69 168.51 223.46 164.36 220.79 164.36 217.82 168.33" style="fill:#ff725e"/><path d="M236,163.92s-.16.21-.52.55l-1.55,1.43-5.56,5-.2.18-.15-.23a71.52,71.52,0,0,0-4.89-6.47l-1.22-1.42h.39l-5.78,7.17-.14.17-.16-.14a24.24,24.24,0,0,1-3.6-4c-.37-.52-.64-1-.81-1.25a1.84,1.84,0,0,1-.23-.47s.44.58,1.23,1.58a27.41,27.41,0,0,0,3.68,3.85l-.3,0,5.71-7.23.19-.24.2.23L223.5,164a64.33,64.33,0,0,1,4.88,6.56l-.35-.05,5.69-4.82,1.64-1.33A3.36,3.36,0,0,1,236,163.92Z" style="fill:#263238"/><path d="M239.16,150.21S229,203.05,230,212.52s4,34.26,5.79,45.93c1.58,10.57,5.18,26.7,7,34.52.55,2.42,3.4,7.06,5.72,6.37,11.74-3.5,23.44-10.3,25.79-11.6,0,0-2.59-25.44-9.64-42.35-.82-2-5-12.55-5-12.55l4.12-71.67-9.26-2.58-7.28-1.77Z" style="fill:#ff725e"/><path d="M230.66,220.67a3.66,3.66,0,0,1,.12-.76c.07-.5.29-1.21.54-2.14.54-1.83,1.38-4.47,2.49-7.7,2.2-6.47,5.42-15.34,9.07-25.1L248.15,171c.41-1.07.81-2.11,1.19-3.12a9.82,9.82,0,0,0,.51-1.46,2.5,2.5,0,0,0-.19-1.38,2.46,2.46,0,0,0-.87-1,12.28,12.28,0,0,0-1.26-.6l-2.45-1.1-.35-.16.35-.17,2.13-1.05a2,2,0,0,0,1.11-1.52,2.21,2.21,0,0,0-.49-1.63,8.43,8.43,0,0,0-1-1.16,18.13,18.13,0,0,0-1.62-1.36c-.4-.29-.56-.52-.52-.54a.63.63,0,0,0,.13.13,3.43,3.43,0,0,0,.45.32,15,15,0,0,1,1.7,1.31,8.68,8.68,0,0,1,1.05,1.16,2.47,2.47,0,0,1,.58,1.8,2.26,2.26,0,0,1-1.25,1.78l-2.12,1.08V162l2.46,1.06a12.14,12.14,0,0,1,1.33.63,2.8,2.8,0,0,1,1,1.2,2.84,2.84,0,0,1,.23,1.63,10.55,10.55,0,0,1-.51,1.56l-1.17,3.12c-1.61,4.28-3.38,9-5.23,14-3.65,9.76-6.92,18.61-9.22,25-1.15,3.21-2,5.83-2.64,7.64-.27.91-.53,1.61-.63,2.1A3.49,3.49,0,0,1,230.66,220.67Z" style="fill:#263238"/><g style="opacity:0.30000000000000004"><path d="M187.05,288.81a8.6,8.6,0,0,0,4.66-4.57c1.77-3.69,11.58-44.7,11.58-44.7l-16.24,49.27"/></g><path d="M173.87,284.7s6.29,7.33,10.94,5.81,6.52-13,9.64-22,8.8-28.29,11.58-39.19a144.52,144.52,0,0,0,4.6-27.41c.61-8.72.7-39.07,1.29-44.32.18-1.57.58-4.68.58-4.68l-4.87,5.12-19,4.81,3.6,68.22Z" style="fill:#ff725e"/><path d="M207.47,158.29a5,5,0,0,1-.47.63c-.31.41-.79,1-1.36,1.79-.29.4-.6.84-.91,1.34a5,5,0,0,0-.79,1.68,3.06,3.06,0,0,0,.95,1.81,14.56,14.56,0,0,0,1.79,1.69l.63.53-.8-.2a6,6,0,0,0-2.39-.12,2.58,2.58,0,0,0-1.11.48,2.18,2.18,0,0,0-.21.22c-.06,0,0,.05-.05.06l0,.14a4.7,4.7,0,0,0,0,.66c.06,1.83.31,3.81.56,5.87.53,4.13,1.19,8.64,1.9,13.37,1.52,9.79,2.9,18.64,3.91,25.12.49,3.18.89,5.76,1.18,7.62q.18,1.29.3,2.07a4,4,0,0,1,.07.73,3.29,3.29,0,0,1-.17-.71c-.1-.52-.24-1.21-.4-2.06-.33-1.85-.78-4.43-1.35-7.59-1.1-6.41-2.58-15.28-4.06-25.1-.71-4.73-1.36-9.25-1.86-13.39-.23-2.07-.47-4-.52-5.93a5.86,5.86,0,0,1,0-.72,1.42,1.42,0,0,1,0-.2.52.52,0,0,1,.13-.22,2.2,2.2,0,0,1,.27-.26A2.82,2.82,0,0,1,204,167a6.1,6.1,0,0,1,2.57.16l-.17.33a15.11,15.11,0,0,1-1.8-1.77,5.75,5.75,0,0,1-.69-.95,1.89,1.89,0,0,1-.31-1.11,5.24,5.24,0,0,1,.87-1.79q.51-.75,1-1.32c.61-.78,1.1-1.35,1.45-1.74A3.53,3.53,0,0,1,207.47,158.29Z" style="fill:#263238"/><g style="opacity:0.30000000000000004"><path d="M190.66,237.59s13,1.74,19.71-1.62c0,0,27.89,7.75,36.34,7.75,9.3,0,13.15-3.39,15.16-8.73l-44-4.48Z"/></g><path d="M253,186c-.49,1-9.18,32.62-9.18,32.62L205,213.22l-7.39,15.11c.6.35,38.74,11.93,54,12,11.81.06,17.76-13.49,20.57-28.39,2.88-15.27,3.47-22.15,3.65-27.42.7-21.65-2.91-20.66-12-23.35" style="fill:#ff725e"/><path d="M263.77,161.17l.61.14,1.76.47c.78.22,1.74.45,2.86.84a9.44,9.44,0,0,1,3.56,1.95A9.11,9.11,0,0,1,275,169a29.84,29.84,0,0,1,.88,6q.19,3.25.13,6.95c0,2.45-.11,5.06-.35,7.78-.45,5.45-1.36,11.36-2.47,17.68s-2.36,13.13-5.29,19.79a28.1,28.1,0,0,1-6.16,9.22l-.52.5c-.18.16-.38.3-.57.45l-1.15.87a16.76,16.76,0,0,1-2.6,1.33,14.35,14.35,0,0,1-1.39.49l-1.45.32a10.31,10.31,0,0,1-1.47.15,12.43,12.43,0,0,1-1.49,0,80,80,0,0,1-11.92-1.4c-4-.69-8-1.58-12.08-2.51-5.16-1.2-10.22-2.51-15.16-3.85-2.47-.68-4.91-1.36-7.31-2.06s-4.74-1.36-7.16-2.2l-.22-.08.12-.25,7.41-15.1.07-.16.18,0,38.81,5.4-.2.13c2.82-10.14,5.11-18.29,6.73-23.91.81-2.81,1.44-5,1.89-6.45.23-.72.4-1.27.53-1.66s.21-.55.21-.55,0,.19-.16.57-.28.95-.48,1.67l-1.8,6.47-6.57,24,0,.15-.16,0L205,213.46l.25-.13c-2.38,4.86-4.84,9.91-7.39,15.11l-.18-.18c.1-.17.09-.15.09-.14h0l.05,0,.1,0,.2.07.42.14.88.28,1.77.53,3.58,1.06c2.4.69,4.84,1.38,7.31,2.05,4.93,1.34,10,2.65,15.14,3.84,4.05.93,8.07,1.82,12.05,2.51a79.55,79.55,0,0,0,11.84,1.4,11.49,11.49,0,0,0,1.44-.05,9.62,9.62,0,0,0,1.43-.14l1.39-.31a10.64,10.64,0,0,0,1.34-.47,14.83,14.83,0,0,0,2.51-1.28l1.12-.85c.19-.14.38-.27.55-.42l.51-.49a27.68,27.68,0,0,0,6.06-9.06c2.91-6.58,4.19-13.36,5.31-19.66s2.05-12.22,2.53-17.64c.25-2.71.33-5.3.38-7.76s0-4.77-.09-6.92a29.44,29.44,0,0,0-.83-5.95,9,9,0,0,0-2.35-4.35,9.36,9.36,0,0,0-3.47-1.94c-1.1-.4-2.07-.66-2.84-.88l-1.75-.53Z" style="fill:#263238"/><path d="M248.48,224.79c-.14.06-.94-1.47-2.2-3.17s-2.47-2.91-2.37-3a12.05,12.05,0,0,1,4.57,6.2Z" style="fill:#263238"/><path d="M258.86,165.75c.15.07-1.23,2.84-2.35,6.46s-1.57,6.68-1.72,6.66a6.42,6.42,0,0,1,.13-2,31.95,31.95,0,0,1,2.9-9.34A7,7,0,0,1,258.86,165.75Z" style="fill:#263238"/><path d="M242.43,207.14c-2.87-.86-11.08,1.82-11.08,1.82v.6l1.43,11.11,5.65-2.33,5.22,0,2.54-8.92S245.3,208,242.43,207.14Z" style="fill:#ffbf9d"/><polygon points="231.34 208.71 227.47 208.91 228.75 224.71 233.09 223.64 231.34 208.71" style="fill:#e0e0e0"/><path d="M188.65,162.87c-2.34.73-3.7,3.15-7.07,15.29-1.81,6.49-5.91,17.26-7.6,22.51-1,3.1-7.85,22.08-6.1,27.32s9.67,11.73,25.35,9c15.5-2.66,35.78-10.1,35.78-10.1l-1.48-18.22-36.81,3.23.36-7.76Z" style="fill:#ff725e"/><path d="M191.41,211.94c-.14,0-.6-8-1-17.84s-.64-17.85-.5-17.85.6,8,1,17.83S191.56,211.93,191.41,211.94Z" style="fill:#263238"/><path d="M189.45,211.94a32.27,32.27,0,0,1-3.31,3.26,31,31,0,0,1-3.42,3.14,24.61,24.61,0,0,1,6.73-6.4Z" style="fill:#263238"/><path d="M187.94,237.59a.53.53,0,0,1,.21-.05l.62-.09c.55-.08,1.36-.14,2.4-.31,2.08-.32,5.09-.85,8.79-1.73a297.12,297.12,0,0,0,29-8.72l-.17.26c-.18-2.23-.37-4.58-.56-7-.32-3.89-.62-7.68-.91-11.26l.28.23-27.25,2.22-8,.6-2.14.14a5.16,5.16,0,0,1-.74,0,4.36,4.36,0,0,1,.74-.11l2.13-.22,8-.75,27.23-2.41.26,0,0,.26c.29,3.58.6,7.36.92,11.25.19,2.39.38,4.74.56,7v.2l-.18.07A270.62,270.62,0,0,1,200,235.74c-3.73.84-6.76,1.32-8.85,1.59-1,.13-1.86.17-2.41.22l-.63,0Z" style="fill:#263238"/><path d="M222.11,95.83l-1,0a19.4,19.4,0,0,0-18.6,18.63c-.37,9.41-.66,19.8-.39,24.83.56,10.4,11,11.59,11,11.59s0,2.89,0,2.89l9.27,8.33,15.12-11.63.82-34.32C238.88,105.34,233,96,222.11,95.83Z" style="fill:#ffbf9d"/><path d="M213.16,150.92a25.13,25.13,0,0,0,13.39-4.56s-2.94,8-13.37,7.45Z" style="fill:#ff9a6c"/><path d="M237.86,123.93c.17-.08,7.07-2.41,7.13,4.72s-7.1,5.72-7.11,5.51S237.86,123.93,237.86,123.93Z" style="fill:#ffbf9d"/><path d="M240,131.44s.12.09.33.18a1.18,1.18,0,0,0,.93,0,3.08,3.08,0,0,0,1.4-2.77,4.06,4.06,0,0,0-.37-1.77,1.41,1.41,0,0,0-.94-.94.63.63,0,0,0-.73.34c-.09.2-.05.35-.08.36s-.16-.12-.1-.41a.72.72,0,0,1,.27-.45.93.93,0,0,1,.69-.19,1.74,1.74,0,0,1,1.31,1.09,4.22,4.22,0,0,1,.44,2c0,1.44-.75,2.79-1.78,3.1a1.34,1.34,0,0,1-1.14-.18C240,131.62,240,131.46,240,131.44Z" style="fill:#ff9a6c"/><path d="M198.24,111.31c4.47.69,9,.36,12.62-2.42a21.43,21.43,0,0,0,2.86-2.7c1.58-1.79,2.82-4,4.95-5.12,2.75-1.4,6.06-.44,9,.54l-.12-.11a13,13,0,0,1,4.07,2.87,40.53,40.53,0,0,0,3.14,20.25,2.18,2.18,0,0,0,1.17,1.16c1.66.66,1.15-1.56,2.39-2,.95-.32,1.41-.12,3.3-.18.66-1.79,1.05-6.67,1.6-9.31a12.18,12.18,0,0,0,3.06-7.11,15.75,15.75,0,0,0-1.27-5.44c-1.81-3.43-2.85-5.18-5.62-6.13l-.06,0c-2.49-1-5.55-.94-7.56.8-.55-3.71-3.84-6.62-7.48-7.53a24.25,24.25,0,0,0-12.92,1.16c-2.36,1-4.64,2.86-7.29,5.55h0c-.35.35-.71.72-1.07,1.11l-.09.1a6.34,6.34,0,0,1-2.7.83,3.84,3.84,0,0,1-3.64-1.49c-.33-.36-.74-.81-1.2-.66a1,1,0,0,0-.55.69,4.46,4.46,0,0,0,1.34,4.43,7.11,7.11,0,0,0,1.93,1.32,5,5,0,0,1-2.87,1.6,3.64,3.64,0,0,0-2.41,1.54,2.49,2.49,0,0,0-.46,1.4C192.33,109.49,195.33,110.86,198.24,111.31Z" style="fill:#263238"/><path d="M196.33,108.19s0,0,.08.07l.26.19a4.64,4.64,0,0,0,.45.28,5.43,5.43,0,0,0,.64.32,9.18,9.18,0,0,0,4.47.75,11.79,11.79,0,0,0,6.27-2.39,20.42,20.42,0,0,0,5.34-6.3c.74-1.27,1.34-2.57,2-3.77a13.71,13.71,0,0,1,2.3-3.2,7,7,0,0,1,3-1.86,4.83,4.83,0,0,1,1.58-.2,5.64,5.64,0,0,1,1.46.26,6.13,6.13,0,0,1,2.19,1.28,5.87,5.87,0,0,1,1.19,1.52,7.21,7.21,0,0,1,.56,1.55,1,1,0,0,0,0-.11c0-.08,0-.19,0-.31a5.56,5.56,0,0,0-.41-1.18,6,6,0,0,0-1.19-1.57,6.29,6.29,0,0,0-2.23-1.35,5.87,5.87,0,0,0-1.5-.28,5.48,5.48,0,0,0-1.64.19A7.23,7.23,0,0,0,218,94a14,14,0,0,0-2.35,3.24c-.67,1.21-1.28,2.51-2,3.77a20.63,20.63,0,0,1-5.26,6.24,11.79,11.79,0,0,1-6.15,2.4,9.28,9.28,0,0,1-4.42-.67A13.7,13.7,0,0,1,196.33,108.19Z" style="fill:#455a64"/><path d="M195.33,103.62a1.71,1.71,0,0,0,.37.25,7.29,7.29,0,0,0,1.12.55,10.47,10.47,0,0,0,1.76.56,12.72,12.72,0,0,0,2.24.27,12.33,12.33,0,0,0,2.26-.18,10.52,10.52,0,0,0,1.78-.48,9.1,9.1,0,0,0,1.14-.5,2.5,2.5,0,0,0,.38-.24s-.59.26-1.58.58a12,12,0,0,1-1.76.42,13.83,13.83,0,0,1-2.21.16,13.43,13.43,0,0,1-2.21-.25,11.14,11.14,0,0,1-1.74-.5C195.91,103.9,195.35,103.58,195.33,103.62Z" style="fill:#455a64"/><path d="M235.2,109a1.89,1.89,0,0,0-.1.67,12.25,12.25,0,0,0,0,1.86,5.85,5.85,0,0,0,.22,1.32.72.72,0,0,0,.71.52,1.32,1.32,0,0,0,.79-.39l2.55-2.36-.38-.22c-.11.5-.24,1-.36,1.53-.34,1.44-.66,2.81-.95,4.06l-.16.68.5-.48a16.71,16.71,0,0,0,2.83-3.48,6,6,0,0,0,.77-1.56,26.16,26.16,0,0,1-3.88,4.73l.34.21c.31-1.25.64-2.62,1-4,.12-.52.25-1,.36-1.53l.18-.74-.55.52-2.5,2.39a1,1,0,0,1-.55.31c-.16,0-.29-.09-.37-.28a6.48,6.48,0,0,1-.24-1.21C235.22,110,235.27,109,235.2,109Z" style="fill:#455a64"/><path d="M215.38,131.26a10.83,10.83,0,0,0-2.62-.36c-.41,0-.8-.09-.88-.37a2,2,0,0,1,.22-1.22c.34-1,.7-2.06,1.08-3.16,1.5-4.5,2.56-8.19,2.38-8.25s-1.54,3.54-3,8l-1,3.18a2.41,2.41,0,0,0-.14,1.61,1,1,0,0,0,.7.57,3,3,0,0,0,.69.07A10.42,10.42,0,0,0,215.38,131.26Z" style="fill:#263238"/><path d="M207.75,123.48a1.51,1.51,0,0,0,1.51,1.48,1.46,1.46,0,0,0,1.49-1.44,1.53,1.53,0,0,0-1.51-1.48A1.45,1.45,0,0,0,207.75,123.48Z" style="fill:#263238"/><path d="M205.6,119c.2.19,1.3-.71,2.92-.78s2.83.71,3,.5-.13-.44-.66-.8a4,4,0,0,0-2.41-.64,3.84,3.84,0,0,0-2.31.86C205.66,118.55,205.51,118.91,205.6,119Z" style="fill:#263238"/><path d="M222.21,123.48a1.52,1.52,0,0,0,1.51,1.48,1.45,1.45,0,0,0,1.49-1.44,1.51,1.51,0,0,0-1.51-1.47A1.44,1.44,0,0,0,222.21,123.48Z" style="fill:#263238"/><path d="M221.45,118.71c.2.19,1.3-.71,2.92-.77s2.83.71,3,.5-.12-.44-.66-.8a4.09,4.09,0,0,0-2.41-.65,4,4,0,0,0-2.31.86C221.51,118.26,221.36,118.63,221.45,118.71Z" style="fill:#263238"/><path d="M220.72,113.62c.24.4,1.79-.1,3.69-.22s3.51.11,3.69-.33c.08-.21-.26-.57-.95-.88a6.1,6.1,0,0,0-2.85-.45,6.25,6.25,0,0,0-2.77.86C220.9,113,220.62,113.42,220.72,113.62Z" style="fill:#263238"/><path d="M205.33,114.19c.35.36,1.65-.06,3.24-.12s2.93.17,3.22-.23c.13-.19-.09-.56-.68-.89a5.33,5.33,0,0,0-5.21.28C205.35,113.62,205.18,114,205.33,114.19Z" style="fill:#263238"/><path d="M221.1,132.46c-.25,0-.16,1.66-1.52,2.92s-3.14,1.18-3.15,1.41.42.3,1.17.28a4.16,4.16,0,0,0,2.63-1.08,3.61,3.61,0,0,0,1.17-2.44C221.42,132.85,221.21,132.44,221.1,132.46Z" style="fill:#263238"/><path d="M200.3,204.21s-.8-3.91-1.54-4.88-7.5-7.67-7.5-7.67a1.73,1.73,0,0,0-1,2.35c.74,1.66,1.31,2.68,1.31,2.68s-5.83-4.24-6.58-3.92a1.93,1.93,0,0,0-.54,2.45,4.33,4.33,0,0,1,.59,1.07,7.71,7.71,0,0,0-2.45-.51,1.47,1.47,0,0,0-.63,2.15c.63.59,2.81,2.2,2.81,2.2s-1.43-.8-1.83.34a2.87,2.87,0,0,0,.17,2.49c.28.54,5.37,5,5.89,5.8a13.13,13.13,0,0,1,.92,3.18c1.4-.06,11.21-1.19,11.21-1.19C201.11,210.58,200.3,204.21,200.3,204.21Z" style="fill:#ffbf9d"/><path d="M197.62,203.66c-.07,0-.37-.41-.83-1.14s-1-1.8-1.81-2.79a24.48,24.48,0,0,0-2.54-2.13c-.68-.53-1.1-.87-1.06-.93s.53.17,1.27.63a13.79,13.79,0,0,1,2.72,2.09,17.36,17.36,0,0,1,1.75,3A3.9,3.9,0,0,1,197.62,203.66Z" style="fill:#ff9a6c"/><path d="M194.49,204a2.34,2.34,0,0,1-.3-.38l-.77-1.08a17,17,0,0,0-1.21-1.52c-.52-.4-1.27-.85-2-1.3a42.09,42.09,0,0,1-5.21-3.46,33.14,33.14,0,0,1,5.48,3,19.4,19.4,0,0,1,2.05,1.4,11.91,11.91,0,0,1,1.18,1.66C194.31,203.33,194.61,204,194.49,204Z" style="fill:#ff9a6c"/><path d="M193,207.14a6.32,6.32,0,0,1-1-1.51l-.45-.8-.12-.13-.19-.15c-.12-.11-.28-.21-.42-.32-.59-.42-1.27-.86-2-1.33a44.65,44.65,0,0,1-5.09-3.5,31.32,31.32,0,0,1,5.37,3.07c.71.47,1.39.93,2,1.38.15.12.29.22.43.35l.2.18a1.71,1.71,0,0,1,.2.27l.39.81A6.54,6.54,0,0,1,193,207.14Z" style="fill:#ff9a6c"/></g></svg>