<svg id="OBJECTS" xmlns="http://www.w3.org/2000/svg" viewBox="0 0 750 500"><path d="M241.71,67.45S344,17.41,425.52,49.91c67.68,27,41.22,61.64,100.92,59.83s118.67,68.56,88.72,158.94c-15.58,47,56.48,86,10.71,138.5-56.85,65.24-173,15.39-362,38.17-99.57,12-172.26-87.66-103.95-164.23,50.37-56.45,17.83-68.6,17.36-121C176.81,104.65,241.71,67.45,241.71,67.45Z" style="fill:#798b97"/><path d="M532.78,84.52l-7.59,64.54c-.25,2.08-83.85-7.45-85.58-8.25s12.24-66.35,13-66.08C464,78.82,532.78,84.52,532.78,84.52Z" style="fill:#fff"/><polygon points="548.41 142.04 532.78 84.52 525.19 149.06 548.41 142.04" style="fill:#3d4c65"/><path d="M461.05,83.19a6.41,6.41,0,0,1-3.68-1c-1.47-1-2.24-2.79-2.28-5.22-.06-3.72,1.82-5.23,2.94-5.8a5.57,5.57,0,0,1,5.75.58,5.46,5.46,0,0,1,1.92,5.66l-1-.2a4.49,4.49,0,0,0-1.55-4.66,4.54,4.54,0,0,0-4.69-.49c-1.58.8-2.43,2.54-2.39,4.89,0,2.1.66,3.58,1.85,4.42,2.37,1.65,6.26.33,6.3.31l.33,1A12.14,12.14,0,0,1,461.05,83.19Z" style="fill:#3d4c65"/><path d="M473.93,85.51a6.36,6.36,0,0,1-3.68-1c-1.47-1-2.23-2.78-2.27-5.21-.06-3.73,1.81-5.24,2.93-5.81a5.55,5.55,0,0,1,5.75.59,5.47,5.47,0,0,1,1.93,5.66l-1-.2a4.44,4.44,0,0,0-6.24-5.15c-1.58.79-2.43,2.53-2.39,4.89,0,2.09.65,3.58,1.84,4.41,2.36,1.65,6.26.33,6.3.32l.33.94A11.77,11.77,0,0,1,473.93,85.51Z" style="fill:#3d4c65"/><path d="M487.72,86.52a6.36,6.36,0,0,1-3.68-1c-1.47-1-2.23-2.78-2.27-5.22-.06-3.72,1.81-5.23,2.94-5.8a5.54,5.54,0,0,1,5.74.59,5.46,5.46,0,0,1,1.93,5.65l-1-.19a4.44,4.44,0,0,0-6.24-5.16c-1.58.8-2.43,2.54-2.39,4.9,0,2.09.66,3.58,1.85,4.41,2.36,1.65,6.26.33,6.3.32l.32.94A11.69,11.69,0,0,1,487.72,86.52Z" style="fill:#3d4c65"/><path d="M503,87.25a6.36,6.36,0,0,1-3.68-1c-1.47-1-2.23-2.78-2.27-5.21-.06-3.73,1.81-5.24,2.94-5.81a5.54,5.54,0,0,1,5.74.59,5.47,5.47,0,0,1,1.93,5.66l-1-.2a4.44,4.44,0,0,0-6.24-5.16c-1.58.8-2.43,2.54-2.39,4.9,0,2.09.65,3.58,1.84,4.41,2.36,1.65,6.26.33,6.3.32l.33.94A11.69,11.69,0,0,1,503,87.25Z" style="fill:#3d4c65"/><path d="M519.19,88.5a6.34,6.34,0,0,1-3.67-1c-1.47-1-2.24-2.78-2.28-5.21-.06-3.73,1.82-5.24,2.94-5.8a5.55,5.55,0,0,1,5.75.58,5.49,5.49,0,0,1,1.92,5.66l-1-.2a4.44,4.44,0,0,0-6.24-5.15c-1.58.8-2.43,2.54-2.39,4.89,0,2.1.66,3.58,1.85,4.41,2.35,1.66,6.26.33,6.3.32l.33.94A11.64,11.64,0,0,1,519.19,88.5Z" style="fill:#3d4c65"/><path d="M515.82,141.75l-69.42-6.81,7.73-48.33,70.25,6.75Zm-68.27-7.7L515,140.67l8.22-46.42L455,87.7Z" style="fill:#3d4c65"/><rect x="437.27" y="111.5" width="47.59" height="1" transform="matrix(0.14, -0.99, 0.99, 0.14, 284.07, 552.22)" style="fill:#3d4c65"/><rect x="483.72" y="115.86" width="48.03" height="1" transform="translate(318.8 601.78) rotate(-81.64)" style="fill:#3d4c65"/><rect x="466.6" y="114.2" width="48.1" height="1" transform="translate(289.71 576.78) rotate(-79.66)" style="fill:#3d4c65"/><rect x="451.7" y="112.74" width="47.97" height="1" transform="translate(293.48 567) rotate(-81.51)" style="fill:#3d4c65"/><rect x="486.91" y="66.2" width="1" height="69.32" transform="translate(332.68 573.94) rotate(-83.58)" style="fill:#3d4c65"/><rect x="484.51" y="80.63" width="1" height="69.07" transform="translate(315.29 583.88) rotate(-83.45)" style="fill:#3d4c65"/><rect x="482.26" y="94.04" width="1" height="68.9" transform="translate(306.65 595.99) rotate(-84.26)" style="fill:#3d4c65"/><path d="M479.21,106.11s4.66-8.4,10.35-3.14-5.53,12-9.77,7.11c0,0,7.4.66,9-3.33S482.42,102.76,479.21,106.11Z" style="fill:#ca6e70"/><path d="M258.22,117s-29.45,17.48-28.55,19.42,6.11,9,6.11,9L264.33,126Z" style="fill:#3d4c65"/><path d="M244.42,122.12s-36.51,20.63-34.91,23.74,10.05,14.78,10.05,14.78l34.91-23.74Z" style="fill:#d5a168"/><path d="M307,91.94a29.89,29.89,0,1,0-7.9,41.52A29.89,29.89,0,0,0,307,91.94Zm-42.26,28.75a21.23,21.23,0,1,1,29.49,5.61A21.24,21.24,0,0,1,264.77,120.69Z" style="fill:#fff"/><path d="M181.5,79.75S219.18,70.46,221,73s7.78,44.89,7.78,44.89l-39.67,7.2Z" style="fill:#fff"/><path d="M187.91,88.68l-.88-.49s2.48-4.36,6.95-3.29A18,18,0,0,1,197.22,86c1.4.62,1.88.83,3.27-.25,2.58-2,4.37-3.13,7.48-2.22a4.9,4.9,0,0,1,2.36,1.59c.23.24.45.5.58.49s.53-.2,1.5-1.42c1.91-2.44,2.28-2.72,5.84-2l-.19,1c-3.09-.59-3.13-.55-4.81,1.59-1.06,1.35-1.69,1.86-2.3,1.88s-1-.38-1.36-.81a3.91,3.91,0,0,0-1.9-1.31c-2.72-.79-4.2.21-6.58,2-1.88,1.44-2.78,1-4.29.38a17.39,17.39,0,0,0-3.07-1.08C190,85,188,88.52,187.91,88.68Z" style="fill:#3d4c65"/><path d="M194.48,116.32l-.87-.48s2.48-4.36,6.94-3.29a17.37,17.37,0,0,1,3.25,1.13c1.4.62,1.87.83,3.27-.25,2.57-2,4.36-3.13,7.48-2.22a4.87,4.87,0,0,1,2.35,1.59c.23.24.46.5.59.49s.53-.2,1.49-1.42c1.91-2.44,2.28-2.72,5.85-2l-.19,1c-3.1-.6-3.13-.56-4.81,1.59-1.06,1.35-1.69,1.85-2.3,1.88s-1-.39-1.36-.82a3.9,3.9,0,0,0-1.9-1.3c-2.72-.79-4.2.21-6.59,2-1.87,1.44-2.78,1-4.28.38a17,17,0,0,0-3.08-1.08C196.6,112.63,194.57,116.17,194.48,116.32Z" style="fill:#3d4c65"/><path d="M190.43,98.21l-.87-.48s2.47-4.36,6.94-3.29a17.37,17.37,0,0,1,3.25,1.13c1.4.62,1.87.83,3.27-.25,2.59-2,4-2.73,7.07-1.82a6.74,6.74,0,0,1,2.41,1.38c.44.34.81.64,1.06.59s.63-.37,1.32-1.64c.22-.4.38-.74.51-1,.78-1.68,1.18-1.71,4-1.16l-.19,1c-2.43-.47-2.43-.47-2.93.6-.13.29-.3.65-.53,1.07-.75,1.39-1.33,2-2,2.15s-1.28-.31-1.88-.79a5.89,5.89,0,0,0-2.07-1.2c-2.7-.79-3.78-.21-6.18,1.65-1.87,1.44-2.78,1-4.29.38a16.61,16.61,0,0,0-3.07-1.08C192.55,94.52,190.52,98.06,190.43,98.21Z" style="fill:#3d4c65"/><path d="M192.37,108.11l-.31-1a1.83,1.83,0,0,0,.72-.31,25.87,25.87,0,0,1,3.06-1.82c2-1.08,2.42-1,3.46-.51a9.09,9.09,0,0,0,1.88.63c2.77.63,4.18-.47,6.45-2.46,1.77-1.55,2.7-1.21,4.25-.64a17.37,17.37,0,0,0,3.13.88c3.8.66,5.64-3.12,5.65-3.16l.91.43s-2.2,4.51-6.73,3.71a18.31,18.31,0,0,1-3.31-.92c-1.43-.53-1.92-.71-3.25.46-2.44,2.14-4.15,3.39-7.32,2.68a9.77,9.77,0,0,1-2.07-.7c-.76-.34-.92-.41-2.57.48a26.3,26.3,0,0,0-3,1.75A2.69,2.69,0,0,1,192.37,108.11Z" style="fill:#3d4c65"/><path d="M157.73,369.2s35.85,14.87,35.74,18-20.37,40.75-20.37,40.75L136.9,410.2Z" style="fill:#d5a168"/><path d="M185.13,393.64c-2.14-2.31-2.19-2.3-4.81-1.57-1.66.46-2.46.49-3,.15a1.78,1.78,0,0,1-.61-1.46,3.88,3.88,0,0,0-.76-2.18c-1.72-2.25-3.51-2.33-6.52-2.26-2.35,0-2.85-.81-3.67-2.24a16.86,16.86,0,0,0-1.84-2.69c-2.46-2.93-6.2-1.27-6.36-1.2l-.41-.91s4.58-2,7.54,1.47a18.05,18.05,0,0,1,1.94,2.84c.76,1.32,1,1.79,2.78,1.73,3.25-.07,5.37.07,7.34,2.66a4.83,4.83,0,0,1,.95,2.67c0,.33.08.67.18.74s.54.16,2.05-.26c3-.83,3.44-.83,5.9,1.84Z" style="fill:#3d4c65"/><path d="M174,419.8c-2.14-2.32-2.19-2.3-4.82-1.57-1.65.46-2.46.49-3,.15a1.79,1.79,0,0,1-.61-1.47,3.88,3.88,0,0,0-.76-2.17c-1.72-2.26-3.51-2.33-6.52-2.26-2.36,0-2.85-.81-3.67-2.24a16.86,16.86,0,0,0-1.84-2.69c-2.47-2.94-6.32-1.22-6.36-1.21l-.42-.91c.05,0,4.59-2,7.55,1.48a18.05,18.05,0,0,1,1.94,2.83c.76,1.33,1,1.78,2.78,1.74,3.25-.08,5.37.07,7.34,2.65a5,5,0,0,1,1,2.68c0,.33.07.67.18.74s.55.16,2-.26c3-.83,3.45-.83,5.91,1.83Z" style="fill:#3d4c65"/><path d="M180.45,402c-1.68-1.82-1.68-1.82-2.71-1.26-.29.16-.63.35-1.07.55-1.43.67-2.26.83-2.88.54s-.84-1-1-1.75a5.82,5.82,0,0,0-1-2.19c-1.71-2.24-2.92-2.41-5.95-2.34-2.38,0-2.86-.81-3.68-2.24a17.38,17.38,0,0,0-1.83-2.69c-2.48-2.94-6.33-1.23-6.37-1.21l-.41-.91s4.58-2,7.54,1.47a18.05,18.05,0,0,1,1.94,2.84c.76,1.33,1,1.78,2.78,1.74,3.28-.08,4.81.15,6.77,2.73a6.91,6.91,0,0,1,1.13,2.54c.15.53.27,1,.5,1.1s.72.08,2-.53c.41-.2.74-.38,1-.53,1.62-.88,2-.66,3.93,1.46Z" style="fill:#3d4c65"/><path d="M174.45,410.22a5.66,5.66,0,0,1-4.21-1.79,18,18,0,0,1-2.12-2.72c-.84-1.27-1.12-1.7-2.88-1.55-3.24.27-5.36.26-7.49-2.19a9.77,9.77,0,0,1-1.25-1.79c-.41-.72-.5-.88-2.36-1.14a27.69,27.69,0,0,0-3.42-.35,2.55,2.55,0,0,1-1.07-.22l.32-.94a1.72,1.72,0,0,0,.77.16,28.11,28.11,0,0,1,3.54.36c2.25.32,2.53.65,3.09,1.64a8.85,8.85,0,0,0,1.13,1.62c1.86,2.15,3.65,2.11,6.65,1.85,2.35-.2,2.9.63,3.81,2a16.14,16.14,0,0,0,2,2.57c2.64,2.77,6.27.89,6.42.81l.48.88A8.17,8.17,0,0,1,174.45,410.22Z" style="fill:#3d4c65"/><path d="M148.62,282.11a20,20,0,1,0,20,20A20,20,0,0,0,148.62,282.11ZM147.94,313a10.19,10.19,0,1,1,10-10.19A10.09,10.09,0,0,1,147.94,313Z" style="fill:#3d4c65"/><path d="M144.53,291.68s-1.51-13.79.61-18.79c.56-1.33,7.58-1.67,8,1.36.11.8.33,16.83-.13,17.13S144.53,291.68,144.53,291.68Z" style="fill:#3d4c65"/><path d="M152.78,312.9s1.51,13.79-.61,18.8c-.56,1.32-7.58,1.66-8-1.36-.11-.81-.33-16.84.13-17.14S152.78,312.9,152.78,312.9Z" style="fill:#3d4c65"/><path d="M152.34,291.88S161,281.05,166.06,279c1.33-.54,6.54,4.18,4.7,6.62-.49.65-11.67,12.13-12.2,12S152.34,291.88,152.34,291.88Z" style="fill:#3d4c65"/><path d="M143.17,312.71s-8.69,10.82-13.72,12.86c-1.34.54-6.54-4.18-4.71-6.62.49-.66,11.67-12.14,12.21-12S143.17,312.71,143.17,312.71Z" style="fill:#3d4c65"/><path d="M159,306.88s10.83,8.68,12.86,13.72c.54,1.33-4.18,6.54-6.62,4.7-.65-.49-12.13-11.67-12-12.21S159,306.88,159,306.88Z" style="fill:#3d4c65"/><path d="M138.2,297.71S127.38,289,125.34,284c-.54-1.34,4.18-6.54,6.62-4.71.66.49,12.14,11.67,12,12.21S138.2,297.71,138.2,297.71Z" style="fill:#3d4c65"/><path d="M137.51,307.07s-13.8,1.51-18.8-.61c-1.32-.56-1.67-7.58,1.36-8,.81-.11,16.83-.33,17.14.13S137.51,307.07,137.51,307.07Z" style="fill:#3d4c65"/><path d="M157.91,298.82s13.79-1.51,18.8.61c1.32.56,1.66,7.58-1.36,8-.81.11-16.84.33-17.14-.13S157.91,298.82,157.91,298.82Z" style="fill:#3d4c65"/><path d="M535,166.49a12.42,12.42,0,1,0,12.42,12.41A12.42,12.42,0,0,0,535,166.49Zm-.42,19.16a6.32,6.32,0,1,1,6.18-6.32A6.25,6.25,0,0,1,534.6,185.65Z" style="fill:#fff"/><path d="M532.49,172.42s-.94-8.55.38-11.65c.35-.82,4.69-1,5,.84.07.5.2,10.43-.08,10.62A51.32,51.32,0,0,1,532.49,172.42Z" style="fill:#fff"/><path d="M537.6,185.56s.94,8.55-.38,11.65c-.35.82-4.69,1-5-.84-.07-.5-.2-10.43.08-10.62A51.32,51.32,0,0,1,537.6,185.56Z" style="fill:#fff"/><path d="M537.33,172.54s5.38-6.71,8.5-8c.82-.34,4,2.59,2.91,4.1-.3.4-7.23,7.52-7.56,7.45A50.91,50.91,0,0,1,537.33,172.54Z" style="fill:#fff"/><path d="M531.64,185.44s-5.38,6.71-8.5,8c-.82.34-4-2.59-2.91-4.1.3-.41,7.23-7.52,7.56-7.45A50.91,50.91,0,0,1,531.64,185.44Z" style="fill:#fff"/><path d="M541.47,181.83s6.71,5.38,8,8.5c.34.83-2.59,4-4.1,2.92-.4-.31-7.52-7.23-7.45-7.57A50.91,50.91,0,0,1,541.47,181.83Z" style="fill:#fff"/><path d="M528.57,176.15s-6.71-5.38-8-8.5c-.33-.83,2.59-4.05,4.1-2.92.41.31,7.52,7.23,7.46,7.57S528.57,176.15,528.57,176.15Z" style="fill:#fff"/><path d="M528.14,182s-8.55.94-11.65-.38c-.82-.35-1-4.69.84-5,.5-.07,10.43-.2,10.62.08A51.32,51.32,0,0,1,528.14,182Z" style="fill:#fff"/><path d="M540.78,176.84s8.54-.94,11.64.38c.82.35,1,4.69-.84,5-.5.07-10.43.2-10.61-.08A51.32,51.32,0,0,1,540.78,176.84Z" style="fill:#fff"/><path d="M617.18,200.75a1,1,0,0,1-1-.79l-5.32-24.62a1,1,0,0,1,.46-1.07c1.57-1,15.33-9.23,19.4-9.23h.17c.92.06,2,.13,6.91,25.57a1,1,0,0,1-.79,1.17,1,1,0,0,1-1.17-.79c-1.71-8.8-4.45-21.54-5.5-23.93-2.9.37-11.78,5.2-17.38,8.56l5.18,23.92a1,1,0,0,1-.77,1.18A.76.76,0,0,1,617.18,200.75Z" style="fill:#3d4c65"/><path d="M616.25,196.82s2.75-4,6.9-1.62c3.41,2-.3,7.15-4.77,6.76C612.93,201.49,616.25,196.82,616.25,196.82Z" style="fill:#3d4c65"/><path d="M635.83,187.89s2.75-4,6.91-1.62c3.4,2-.31,7.15-4.78,6.76C632.51,192.55,635.83,187.89,635.83,187.89Z" style="fill:#3d4c65"/><path d="M590,175.36a1,1,0,0,1-.37-.07,1,1,0,0,1-.55-1.31c2.94-7.23,6-15.29,6.44-17.39-2.08-.86-9.14-1.48-14.28-1.69l-6.63,17.32a1,1,0,1,1-1.87-.72l6.89-18a1,1,0,0,1,1-.64c2.35.08,14.16.56,16.52,2.33.73.54,1.35,1-6.19,19.53A1,1,0,0,1,590,175.36Z" style="fill:#3d4c65"/><path d="M574.3,169.6s3.45-1.43,5.1,1.85c1.35,2.69-3.19,4.45-5.88,2.33C570.23,171.2,574.3,169.6,574.3,169.6Z" style="fill:#3d4c65"/><path d="M590.57,172.08s3.45-1.43,5.1,1.85c1.35,2.68-3.19,4.45-5.89,2.33C586.5,173.67,590.57,172.08,590.57,172.08Z" style="fill:#3d4c65"/><path d="M592.26,259.17l-19.12,33.12s43,26.63,45.09,28.17,21.49-30.18,20.93-32S592.26,259.17,592.26,259.17Z" style="fill:#d5a168"/><path d="M604.27,297.65a1.09,1.09,0,0,1-.43-.06c-1.87-.77-9.06-27-12.06-38.3l1-.25c3.72,13.93,10.14,36.47,11.53,37.66,1.53.35,22.13-5.18,34.76-8.76l.27,1C634,290.41,608.32,297.65,604.27,297.65Z" style="fill:#3d4c65"/><path d="M573.25,292.78l-.22-1c3.84-.9,26.34-6.7,26.57-6.76l.25,1C599.62,286.08,577.11,291.89,573.25,292.78Z" style="fill:#3d4c65"/><path d="M617.73,320.53c-1.39-9.7-3.56-24.43-3.82-25.23l.46-.15-.13-.53.41.07c.24.16.43.29,4.07,25.7Z" style="fill:#3d4c65"/><path d="M122.89,383.35l-.84-.55s.5-.76,1.44-2.07l.81.59C123.38,382.59,122.89,383.34,122.89,383.35Z" style="fill:#3d4c65"/><path d="M249.86,460.73c-1.66-.05-3.36-.15-5.05-.31l.09-1c1.67.16,3.35.26,5,.31Zm5,0,0-1c1.65-.06,3.32-.17,5-.34l.1,1C258.28,460.54,256.59,460.66,254.91,460.72Zm-15.11-.92c-1.64-.26-3.32-.56-5-.91l.2-1c1.64.35,3.3.65,4.92.9Zm25.16-.12-.17-1c1.63-.28,3.27-.62,4.89-1l.23,1C268.28,459.05,266.61,459.39,265,459.68Zm-35-2a49.26,49.26,0,0,1-4.81-1.62l.37-.93a47.23,47.23,0,0,0,4.71,1.59Zm44.87-.41-.3-1c1.55-.49,3.14-1,4.72-1.64l.36.93C278,456.24,276.35,456.8,274.78,457.29Zm-54.27-3.4A29.93,29.93,0,0,1,216.3,451l.64-.78A28.26,28.26,0,0,0,221,453Zm63.71-.19-.4-.91c1.46-.66,3-1.38,4.52-2.15l.44.9C287.24,452.31,285.7,453,284.22,453.7Zm9-4.51-.48-.88c1.51-.83,3-1.66,4.37-2.46l.5.86Q295.53,447.92,293.25,449.19Zm-80.56-1.79a24.81,24.81,0,0,1-2.81-4.27l.89-.46a23.77,23.77,0,0,0,2.69,4.1Zm89.3-3.2-.5-.87c1.84-1.05,3.2-1.81,4.42-2.44l.46.88C305.17,442.4,303.81,443.15,302,444.2Zm8.89-4.52-.36-.93a17.26,17.26,0,0,1,5-1.21l.06,1A16.26,16.26,0,0,0,310.88,439.68ZM208,438.41a37.17,37.17,0,0,1-1.16-5l1-.16a36.64,36.64,0,0,0,1.12,4.82Zm-1.71-10c-.09-1.37-.13-2.85-.13-4.38v-.68h1V424c0,1.51,0,3,.12,4.31Zm1-10.05-1-.05c.08-1.51.2-3.15.35-5l1,.08C207.46,415.23,207.35,416.86,207.27,418.36Zm.78-10-1-.09.09-.95c.12-1.34.25-2.7.36-4.05l1,.08-.36,4.06Zm.84-10-1-.06c.13-1.82.21-3.46.26-5l1,0C209.1,394.85,209,396.49,208.89,398.32Zm-.69-10.06c0-1.74-.12-3.42-.26-5l1-.09c.14,1.58.23,3.28.26,5.05Zm-.91-9.92a42.46,42.46,0,0,0-1.17-4.82l.95-.29a43.88,43.88,0,0,1,1.2,4.93Zm-80-1-.78-.63c1-1.3,2.12-2.61,3.23-3.88l.76.66C129.44,374.75,128.36,376.05,127.33,377.34Zm6.58-7.55-.72-.69c1.18-1.23,2.38-2.44,3.57-3.57l.69.72C136.27,367.38,135.08,368.57,133.91,369.79Zm70.43-.89a31.14,31.14,0,0,0-2.43-4.3l.83-.56a34.22,34.22,0,0,1,2.51,4.43Zm-63.17-6-.65-.77c1.31-1.11,2.63-2.18,3.94-3.16l.6.8C143.77,360.75,142.46,361.8,141.17,362.91Zm57.66-2.17a34.3,34.3,0,0,0-3.63-3.36l.63-.78a34.25,34.25,0,0,1,3.73,3.46Zm-49.68-3.82-.54-.84c1.45-.94,2.92-1.81,4.36-2.58l.47.88C152,355.14,150.58,356,149.15,356.92Zm42-2.38q-.87-.54-1.8-1.05c-.85-.47-1.71-.91-2.57-1.3l.42-.91c.87.4,1.76.85,2.64,1.33.63.35,1.24.71,1.84,1.07Zm-33.21-2.3-.38-.92a44.14,44.14,0,0,1,4.78-1.7l.28,1A45.24,45.24,0,0,0,157.93,352.24Zm24.21-1.79a32.85,32.85,0,0,0-4.83-1.06l.14-1a34.48,34.48,0,0,1,5,1.09Zm-14.69-1-.16-1a34.93,34.93,0,0,1,5.07-.43v1A35.75,35.75,0,0,0,167.45,349.49Z" style="fill:#3d4c65"/><path d="M322.13,441.05a9.44,9.44,0,0,0-1.87-1.45l.5-.87a10.53,10.53,0,0,1,2.07,1.61Z" style="fill:#3d4c65"/><path d="M163.44,108.15c0-.08-.49-1.91-1-5l1-.16c.49,3,1,4.85,1,4.86Zm-1.63-10c-.17-1.68-.28-3.37-.34-5l1,0c.06,1.62.17,3.29.34,4.95Zm.65-10-1,0c.06-1.71.18-3.4.36-5l1,.11C162.64,84.83,162.52,86.49,162.46,88.18Zm1.13-9.85-1-.2a48.54,48.54,0,0,1,1.26-4.89l.95.31A45.73,45.73,0,0,0,163.59,78.33Zm99.13-3.42a19.51,19.51,0,0,1-2.31-.13l.12-1a19.68,19.68,0,0,0,2.19.12h0a22.18,22.18,0,0,0,2.66-.16l.12,1a22.17,22.17,0,0,1-2.78.17Zm7.75-1.23-.28-1A43.46,43.46,0,0,0,274.83,71l.39.92A44.73,44.73,0,0,1,270.47,73.68Zm-15-.18A23.77,23.77,0,0,1,251,71.06l.56-.83a22.8,22.8,0,0,0,4.27,2.35Zm24.31-3.69-.46-.89c1.39-.72,2.85-1.53,4.35-2.41l.51.87C282.66,68.26,281.18,69.08,279.78,69.81ZM166.6,68.94l-.91-.42a36.37,36.37,0,0,1,2.42-4.44l.84.54A34.41,34.41,0,0,0,166.6,68.94Zm80.44-1c-1.15-1-2.29-2-3.49-3.14l-.23-.21.67-.74.23.21c1.2,1.1,2.33,2.14,3.48,3.13Zm41.41-3.2-.54-.84c.72-.46,1.46-.95,2.21-1.45l.56.83C289.92,63.79,289.18,64.28,288.45,64.74Zm-48.84-3.48c-1.37-1.18-2.63-2.2-3.86-3.12l.6-.8c1.25.93,2.53,2,3.91,3.16Zm-67.7-.57-.75-.66a32.8,32.8,0,0,1,3.65-3.52l.63.77A31.6,31.6,0,0,0,171.91,60.69Zm59.74-5.32a48,48,0,0,0-4.36-2.32l.42-.9a43.43,43.43,0,0,1,4.46,2.37Zm-52.19-.91L179,53.6a36.74,36.74,0,0,1,4.52-2.28l.39.92A36.21,36.21,0,0,0,179.46,54.46Zm43.25-3.22c-1.53-.51-3.13-1-4.76-1.32l.22-1A49.32,49.32,0,0,1,223,50.29Zm-34.2-.62-.27-1c1.56-.44,3.21-.82,4.91-1.12l.18,1A48.6,48.6,0,0,0,188.51,50.62Zm24.57-1.54c-1.59-.2-3.25-.34-4.93-.42l0-1c1.72.08,3.4.22,5,.43Zm-14.85-.22-.09-1c1.14-.1,2.33-.17,3.52-.22l1.51,0,0,1-1.5,0C200.52,48.68,199.36,48.76,198.23,48.86Z" style="fill:#3d4c65"/><path d="M583.46,344.42l-9.14,63.86,80.46,13.45,10.63-63.61Z" style="fill:#3d4c65"/><path d="M589,351.77l-7,49.53,68.48,11.45,9.1-49.18Z" style="fill:#fff"/><path d="M593.11,398.57s1.53-19.28,2.06-19.56,9.42,1.52,9.42,1.52-1.58,19.57-2.3,19.57S593.11,398.57,593.11,398.57Z" style="fill:#c8423e"/><path d="M618.76,402.82s3.44-30.69,4-31.17,9.42,1.48,9.42,1.48-3.51,31.16-4.25,31.23S618.76,402.82,618.76,402.82Z" style="fill:#87beca"/><path d="M606.29,400.75s2.53-25.27,3.08-25.65,9.42,1.49,9.42,1.49-2.6,25.66-3.33,25.7S606.29,400.75,606.29,400.75Z" style="fill:#d5a168"/><path d="M632.39,405.08s4.7-38.25,5.29-38.87,9.43,1.45,9.43,1.45-4.8,38.84-5.55,38.95S632.39,405.08,632.39,405.08Z" style="fill:#3d4c65"/><polygon points="292.71 32.71 302.63 42.56 295.17 59 305.38 56.3 305.91 67.22 345.05 39.1 292.71 32.71" style="fill:#87beca"/><rect x="302.57" y="40.5" width="41.42" height="1" transform="translate(-2.17 24.43) rotate(-4.31)" style="fill:#3d4c65"/><rect x="293.54" y="53.96" width="14.31" height="1" transform="translate(33.91 203.49) rotate(-39.45)" style="fill:#3d4c65"/><rect x="305.5" y="44.18" width="39.14" height="1" transform="translate(-0.11 88.58) rotate(-15.52)" style="fill:#3d4c65"/><rect x="302.58" y="52.61" width="6.44" height="1" transform="translate(213.41 349.42) rotate(-82.53)" style="fill:#3d4c65"/><polygon points="343.11 423.53 344.06 437.48 327.6 444.91 337.06 449.62 330.25 458.17 378.2 462.9 343.11 423.53" style="fill:#d5a168"/><rect x="360.1" y="429.24" width="1" height="41.42" transform="translate(-215.76 467.01) rotate(-52.99)" style="fill:#3d4c65"/><rect x="334.25" y="437.99" width="1" height="14.31" transform="translate(-121.12 765.13) rotate(-88.12)" style="fill:#3d4c65"/><rect x="359.02" y="434.33" width="1" height="39.14" transform="translate(-205.62 579.95) rotate(-64.19)" style="fill:#3d4c65"/><rect x="336.26" y="447" width="6.44" height="1" transform="translate(-210.79 334.78) rotate(-41.24)" style="fill:#3d4c65"/><polygon points="628.41 206.13 627.46 220.08 643.92 227.5 634.47 232.22 641.28 240.76 593.32 245.49 628.41 206.13" style="fill:#ca4d4f"/><rect x="590.22" y="232.04" width="41.42" height="1" transform="translate(-16.99 414.29) rotate(-36.98)" style="fill:#3d4c65"/><rect x="629.62" y="227.24" width="14.31" height="1" transform="translate(-7.21 21.28) rotate(-1.9)" style="fill:#3d4c65"/><rect x="592.44" y="235.99" width="39.14" height="1" transform="translate(-41.91 290.1) rotate(-25.81)" style="fill:#3d4c65"/><rect x="631.54" y="226.87" width="1" height="6.44" transform="translate(42.34 553.63) rotate(-48.76)" style="fill:#3d4c65"/><circle cx="551.59" cy="421.73" r="15.75" style="fill:#d5a168"/><rect x="547.78" y="415.78" width="1" height="8.32" transform="translate(-127.41 277.09) rotate(-25.51)" style="fill:#3d4c65"/><rect x="552.46" y="413.55" width="1" height="8.32" transform="translate(-125.99 278.89) rotate(-25.51)" style="fill:#3d4c65"/><path d="M552.54,430.94c-5.31,0-8-5.75-8.07-5.82l.9-.42c.14.29,3.39,7.07,9.71,4.76a5.82,5.82,0,0,0,3.65-3.21c1.2-2.95-.48-6.56-.5-6.59l.91-.43c.07.16,1.89,4,.51,7.4a6.81,6.81,0,0,1-4.23,3.77A8.27,8.27,0,0,1,552.54,430.94Z" style="fill:#3d4c65"/><path d="M78.68,154.4s62.84-24.31,66.42-21.11,36.38,102.46,33.73,104.38-62.16,22.12-66.1,22.84S73.53,156.37,78.68,154.4Z" style="fill:#fff"/><path d="M86.91,156.75s48.8-18.58,51.56-16.18,27.86,77.31,25.8,78.77S116,236.27,113,236.82,82.91,158.26,86.91,156.75Z" style="fill:#3d4c65"/><circle cx="142.78" cy="236.88" r="6.6" style="fill:#798b97"/><path d="M93.06,164.82s27.16-10.58,29.16-10.33,3.7,7.5,3.23,8.25-29.23,9.87-30.23,10.19S91.06,165.59,93.06,164.82Z" style="fill:#87beca"/><path d="M122.33,199.09s28.2-10.68,30.2-10.43,3.75,7.18,3.27,7.93-28.61,10.88-30.44,10.87C124.31,207.45,120.33,199.87,122.33,199.09Z" style="fill:#87beca"/><path d="M96.22,176.11S115,169.49,117,169.74s4,6.28,3.48,7-20,6.71-21,7S95.19,176.77,96.22,176.11Z" style="fill:#87beca"/><path d="M134.63,207.37s19.71-7,21.71-6.72,4,6.28,3.48,7-19.94,7-23.65,8C135.16,216,132.63,208.14,134.63,207.37Z" style="fill:#87beca"/><path d="M101.22,187.78S120,181.16,122,181.41s4,6.28,3.48,7-21,7-22,7.34S99.23,188.55,101.22,187.78Z" style="fill:#87beca"/><path d="M152.17,116.67s-23.21-8.79-32.78,11.78c-7.69,16.51,3.38,30.36,19.92,35-2,2.44-4.47,5.65-4.62,6.41-.23,1.26,21.83-.31,28.85-9.37h0C174.77,150.12,175.49,125.27,152.17,116.67Z" style="fill:#fff"/><path d="M140.78,153.3s-11.43-24.72-3.6-27.76S146,138.2,146,138.2s5.44-10.85,9.7-9.75C164.9,130.85,151.63,148.06,140.78,153.3Z" style="fill:#ca4d4f"/><path d="M372,123.8s3.41-8.6.35-20.13c-2.81-10.64-5.41-31.21,15.85-35.25s25.81,15.69,23.18,27c-2.32,9.95-16.15,25.56-17.19,33.56Z" style="fill:#d5a168"/><path d="M371.18,117.6s26.28,5.13,26.29,6.11-2.25,15.56-3.81,16.35S368.1,134.8,367.38,134,369,117.17,371.18,117.6Z" style="fill:#3d4c65"/><path d="M376,128.55s12.1,2,12,2.79-2.32,12.71-3.13,13.46-11.75-2.16-12-2.79S375,128.38,376,128.55Z" style="fill:#3d4c65"/><path d="M389.37,123.82c-.62-2.16,2.43-7.82,5.95-14.37s8.07-15,6.93-17.4c-.53-1.14-1.09-1-1.27-1a3.86,3.86,0,0,0-2.05,1.77c1.15,2,1.28,4.15.66,5.26a1.66,1.66,0,0,1-2.22.74c-.44-.18-1.15-.72-1-2.34a9.94,9.94,0,0,1,1.35-3.65A7.64,7.64,0,0,0,396,91a2.14,2.14,0,0,0-2.33-.31,3.56,3.56,0,0,0-1.1.91c1.38,3.85,2,6.39,1,7.21-.44.38-1.09.34-1.93-.12a3.37,3.37,0,0,1-1.51-3.27,7.78,7.78,0,0,1,1.31-4c-.12-.32-.25-.66-.38-1a1,1,0,0,0-.89-.7,5.54,5.54,0,0,0-3.4,1.82,9.46,9.46,0,0,1,.36,2.47c0,1.48-.32,3.19-1.32,3.55-.37.13-.95.12-1.59-.68s-.73-2.21,0-3.66a9.22,9.22,0,0,1,1.4-2,3.75,3.75,0,0,0-2.18-2.38.41.41,0,0,0-.39.08c-2,1.38-3.57,12.81-4.22,30.56,0,.31,0,.52,0,.59l-1,0,0-.58c.48-13.16,1.67-29.28,4.65-31.35A1.39,1.39,0,0,1,383.8,88a4.5,4.5,0,0,1,2.63,2.57,5.91,5.91,0,0,1,3.83-1.79A2,2,0,0,1,392,90.1l.18.48a4,4,0,0,1,1-.74,3.07,3.07,0,0,1,3.36.4,8.43,8.43,0,0,1,1.73,1.69,4.42,4.42,0,0,1,2.48-1.88c.68-.11,1.63.07,2.34,1.57,1.34,2.89-2.69,10.38-7,18.31-3.13,5.82-6.38,11.85-5.87,13.61Zm2.53-31.13a6.52,6.52,0,0,0-.74,2.8,2.57,2.57,0,0,0,1,2.37c.53.29.75.27.79.23C393.25,97.84,393.26,96.65,391.9,92.69Zm6.43,1.12a8.46,8.46,0,0,0-.93,2.77c0,.33-.08,1.13.34,1.3a.68.68,0,0,0,1-.3A4.53,4.53,0,0,0,398.33,93.81ZM386,92.45a8,8,0,0,0-.83,1.25,2.43,2.43,0,0,0-.13,2.59c.24.3.42.37.47.35.23-.08.68-1,.66-2.59A9,9,0,0,0,386,92.45Z" style="fill:#3d4c65"/><rect x="416.64" y="69.4" width="9.8" height="1" transform="translate(30.8 242.82) rotate(-33.29)" style="fill:#3d4c65"/><rect x="421.71" y="81.97" width="9.8" height="1" transform="translate(-5.23 34.42) rotate(-4.59)" style="fill:#3d4c65"/><rect x="425.2" y="89.83" width="1" height="9.8" transform="translate(193.65 463.99) rotate(-70.4)" style="fill:#3d4c65"/><rect x="424.29" y="102" width="1" height="9.8" transform="translate(187.65 475.19) rotate(-71.35)" style="fill:#3d4c65"/><rect x="418.34" y="111.7" width="1" height="9.8" transform="translate(68.34 373.84) rotate(-51.83)" style="fill:#3d4c65"/><rect x="409.49" y="121.67" width="1" height="9.8" transform="translate(-16.06 177.53) rotate(-23.98)" style="fill:#3d4c65"/><rect x="407.81" y="60.93" width="9.8" height="1" transform="translate(152.75 387.81) rotate(-59.93)" style="fill:#3d4c65"/><rect x="376.96" y="54.18" width="1" height="9.8" transform="translate(16.08 183.07) rotate(-27.83)" style="fill:#3d4c65"/><rect x="366.46" y="62.74" width="1" height="9.8" transform="translate(108.28 336.56) rotate(-56.56)" style="fill:#3d4c65"/><rect x="361.34" y="73.92" width="1" height="9.8" transform="matrix(0.16, -0.99, 0.99, 0.16, 225.92, 423.3)" style="fill:#3d4c65"/><rect x="356.27" y="85.01" width="1" height="9.8" transform="translate(205.12 425.13) rotate(-79.8)" style="fill:#3d4c65"/><rect x="352.4" y="100.78" width="9.8" height="1" transform="translate(-11.7 59.29) rotate(-9.33)" style="fill:#3d4c65"/><rect x="355.33" y="113.79" width="9.8" height="1" transform="translate(4.16 240.95) rotate(-37.18)" style="fill:#3d4c65"/><rect x="388.79" y="51.01" width="1" height="9.8" transform="translate(-1.1 8.31) rotate(-1.22)" style="fill:#3d4c65"/><rect x="395.68" y="55.29" width="9.41" height="1" transform="translate(295.36 446.16) rotate(-82.87)" style="fill:#3d4c65"/><circle cx="289.9" cy="184.61" r="18.4" style="fill:#fff"/><polygon points="289.95 187.9 280.58 177.58 281.32 176.91 289.84 186.29 297.48 175.2 298.31 175.77 289.95 187.9" style="fill:#3d4c65"/><path d="M289.9,209.24a25.16,25.16,0,1,1,25.15-25.16A25.19,25.19,0,0,1,289.9,209.24Zm0-49.32a24.16,24.16,0,1,0,24.15,24.16A24.19,24.19,0,0,0,289.9,159.92Z" style="fill:#3d4c65"/><path d="M430.15,184s-10.86-23.53-5.38-26.91,8.62,12,8.62,12,5.95-14.37,11.2-7.27C448.15,166.63,430.15,184,430.15,184Z" style="fill:#fff"/><path d="M234.28,432.56s-22.74-12.43-20.35-18.41,14,4.48,14,4.48-3.77-15.09,4.68-12.51C238.39,407.87,234.28,432.56,234.28,432.56Z" style="fill:#fff"/><polygon points="193.36 184.01 192.56 178.48 197.01 181.52 201.09 178.48 199.75 183.79 203.75 186.53 198.87 187.41 196.5 192.63 194.69 187.41 189.63 187.41 193.36 184.01" style="fill:#fff"/><polygon points="217.78 364.38 216.98 358.85 221.43 361.89 225.51 358.85 224.18 364.15 228.18 366.9 223.3 367.78 220.92 373 219.12 367.78 214.05 367.78 217.78 364.38" style="fill:#fff"/><polygon points="577.83 315.03 582.86 312.6 581.3 317.76 585.44 320.73 579.97 321.06 578.56 325.7 576.25 321.31 570.55 320.63 574.99 317.33 573.46 312.5 577.83 315.03" style="fill:#fff"/><polygon points="334.14 97.17 339.17 94.73 337.61 99.9 341.75 102.87 336.28 103.2 334.87 107.84 332.56 103.45 326.86 102.77 331.3 99.47 329.77 94.64 334.14 97.17" style="fill:#fff"/><path d="M652.14,221.15l-.72-.69c.7-.72,1.38-1.47,2-2.23l.76.65C653.54,219.65,652.85,220.41,652.14,221.15Zm5.13-6.28-.83-.57a45.68,45.68,0,0,0,2.57-4.22l.88.47A49.19,49.19,0,0,1,657.27,214.87ZM662,206l-.93-.37a43,43,0,0,0,1.56-4.69l1,.27A44.84,44.84,0,0,1,662,206Zm2.65-9.74-1-.15a44.3,44.3,0,0,0,.48-4.92l1,.05A49,49,0,0,1,664.68,196.23Zm-.56-10c-.1-1.62-.29-3.27-.55-4.92l1-.16c.26,1.68.45,3.37.55,5Zm-1.55-9.77c-.39-1.57-.86-3.17-1.4-4.76l1-.32c.54,1.62,1,3.24,1.42,4.84Zm-3.15-9.4c-.62-1.49-1.31-3-2.06-4.52l.9-.44c.75,1.53,1.45,3.07,2.08,4.57ZM655,158.14c-.79-1.4-1.65-2.84-2.56-4.27l.85-.53c.91,1.44,1.78,2.89,2.58,4.31Zm-5.31-8.41c-.93-1.32-1.91-2.68-2.94-4l.8-.61c1,1.36,2,2.72,3,4.06Zm-6-7.93-.23-.27c-1-1.2-2-2.36-3.05-3.46l.73-.69c1.05,1.12,2.1,2.3,3.09,3.51l.23.28Zm-65.42-.53a3.39,3.39,0,0,1-.55,0l.16-1c1.51.25,2.84-1.05,3.63-2.14l.81.59C581.1,140.38,579.7,141.27,578.28,141.27Zm-4.6-3.46a5.27,5.27,0,0,1-.57-2.4,6.66,6.66,0,0,1,.69-2.85l.91.43a5.64,5.64,0,0,0-.6,2.42,4.28,4.28,0,0,0,.47,2Zm63.19-3.19c-1.24-1.11-2.53-2.17-3.83-3.14l.6-.8c1.32,1,2.63,2.06,3.9,3.19Zm-52.26-.52-.94-.33a32.59,32.59,0,0,0,1.25-4.76l1,.18A33,33,0,0,1,584.61,134.1Zm-6.92-4.82-.66-.75a24.35,24.35,0,0,1,4.17-2.93l.49.87A23.31,23.31,0,0,0,577.69,129.28Zm51.25-.58c-1.41-.86-2.87-1.66-4.34-2.38l.44-.9c1.5.73,3,1.55,4.42,2.43Zm-8.89-4.32c-1.55-.57-3.13-1.07-4.72-1.48l.25-1c1.62.42,3.24.93,4.82,1.51Zm-33.91,0-.08-.22-.5,0c.1-1.28.15-2.6.15-3.93,0-.34,0-.68,0-1l1,0c0,.35,0,.69,0,1,0,1,0,2-.08,2.93,1.28-.47,2.6-.88,4-1.24l.25,1A45.3,45.3,0,0,0,586.14,124.36Zm24.34-2.46c-1.62-.25-3.28-.42-4.92-.51l.05-1a49.34,49.34,0,0,1,5,.52Zm-14.79-.05-.15-1c1.65-.24,3.34-.41,5-.49l0,1C599,121.45,597.31,121.61,595.69,121.85Zm-10.31-7.64c-.19-1.64-.45-3.29-.78-4.89l1-.2c.34,1.63.6,3.31.79,5Zm-2-9.68a44.88,44.88,0,0,0-1.72-4.63l.92-.4a48.61,48.61,0,0,1,1.76,4.74Zm-3.94-9-.19-.34c-.8-1.35-1.62-2.65-2.45-3.87l.83-.56c.84,1.24,1.67,2.56,2.48,3.93l.2.34Zm-5.57-8.21c-1.07-1.33-2.17-2.58-3.27-3.7l.71-.7a48.3,48.3,0,0,1,3.34,3.78Zm-7-7a27.27,27.27,0,0,0-4.12-2.65l.46-.89a28.5,28.5,0,0,1,4.27,2.75Zm-8.67-4.37a14.3,14.3,0,0,0-3.21-.4,7.53,7.53,0,0,0-1.52.13l-.23-1a7.64,7.64,0,0,1,1.75-.16,15.13,15.13,0,0,1,3.44.43Z" style="fill:#3d4c65"/><circle cx="189.09" cy="387.22" r="9.13" style="fill:#fff"/><polygon points="189.28 392.2 183.16 386.33 185.24 384.17 188.9 387.67 198.08 375.23 200.49 377.01 189.28 392.2" style="fill:#87beca"/><path d="M410.48,263.3s47-16.92,59.32-51.62-9.39-78.14,11.56-101.14c9.74-10.69-5,15.14-.65,13.21,3.14-1.39,3.72-2.3,7-2.2,6.06.19,11.65,6.9,6.66,12.25-4.34,4.65-2.39,14.69-.24,30,2.56,18.19,22.13,94-41,123.63C453.09,287.44,410.52,276,410.48,263.3Z" style="fill:#e5b5b7"/><path d="M484.52,128.67l-.8-.6c.16-.21,3.95-5.22,7.13-6.2l.29,1C488.27,123.71,484.56,128.62,484.52,128.67Z" style="fill:#3e2d4a"/><path d="M488,133.08l-.83-.55c.16-.24,3.89-5.73,7.57-7.61l.45.89C491.72,127.57,488,133,488,133.08Z" style="fill:#3e2d4a"/><path d="M405.19,264.65s23.67-5.35,47.72-28.16c0,0,21.57,6,41.06,5.28,0,0-4.86,20.5-30.54,40.33C463.43,282.1,416.59,274.91,405.19,264.65Z" style="fill:#c05c5d;opacity:0.38"/><path d="M554.78,206.05s4.92-16.83,10.65-23.58-4.53,23,3,19.32c3-1.46,24.41-18,26.92-15.65s-14.63,14.23-14,18.36,5.75,9.41,4.05,12.28-7.17,14-16.26,13.67-11.41,64.48-49,82.54c-31.37,15.09-105.06-3.37-105.06-3.37l5.34-42.56s67.94,22.29,88.19,10C531.63,263.19,554.78,206.05,554.78,206.05Z" style="fill:#e5b5b7"/><path d="M574.88,213.42l-.56-.83c.07,0,6-4.09,6.57-8.15l1,.13C581.29,209.08,575.14,213.25,574.88,213.42Z" style="fill:#3d4c65"/><path d="M579.85,217.82l-.69-.73s3.12-2.94,5.34-5.58l.76.65C583,214.84,579.88,217.79,579.85,217.82Z" style="fill:#3d4c65"/><path d="M550.22,278s-12.11,0-33.32-7.56c0,0-10.29,17.05-48.34,7.56,0,0-14.87,21-19.18,25.69S522.6,346.18,550.22,278Z" style="fill:#c05c5d;opacity:0.38"/><path d="M247,150.61a11.56,11.56,0,0,0,5.92-8.11c1.47-8.73-6.89-1.64-10.22-1.64s-5.6-17.86-8.94-17.15-6.79,4.59-9.45,7.81S213,137.4,213,140.73s2.67,14,10.67,18.33-8.67,57.78,14.45,92.46c19.3,29,73.28,51.06,73.28,51.06l21.54-36.25S275.47,246,264.3,225.15C251.63,201.5,247,150.61,247,150.61Z" style="fill:#e5b5b7"/><path d="M539.89,293.86s53.47,59.34,7.23,84.94c-38.27,21.19-87.48-43-92.39-47.44s18.95-32.82,23.14-32.89,39.56,56.91,53.42,47.1c20.07-14.21,2.21-28.08,2.21-28.08S536.69,294.72,539.89,293.86Z" style="fill:#e5b5b7"/><path d="M351.56,205s11.27,42.09-.43,55.36S301.76,269,308.78,319.1s8.33,92.71,8.33,92.71H432.45s18.16-110-1.34-134.66-44.44-4.53-42.88-23.93-4.68-53.73-4.68-53.73Z" style="fill:#e5b5b7"/><path d="M388.43,249.57S384,270.39,356,247c0,0-.67-18.24-.67-19.57s33.65,2.5,33.83,3.33S389.33,248.08,388.43,249.57Z" style="fill:#ca6e70"/><path d="M344.69,264.45s13.66,36.68,40.12,29.41c18.33-5,9.81-32.06,14.25-31.59s19-1.65,33.39,12.12,15.49,137.42,11,137.42-127.19.42-131,0-10.68-118.42-5.34-129.09S305,270.53,344.69,264.45Z" style="fill:#ca4d4f"/><path d="M408.48,197.71s-.6-8.46-5.7-8.73-7.2,14.84-.39,17.23S408.61,198.74,408.48,197.71Z" style="fill:#e5b5b7"/><path d="M348.32,174.11s35.23-18,46.28-2,12.32,76.34-15.84,74S328.46,181.47,348.32,174.11Z" style="fill:#e5b5b7"/><path d="M347.21,185.52s-5.29,35.35,16.37,42c10.5,3.21,5.63-15.6,20.84-14.53,10.76.76,9.71,12.46,14.76,3.35s-6.25-36.57-2.39-34.17,22.54,52.64-3.85,62.21c-24.9,9-42.57-6.5-48.87-30.16S341.77,180,347.21,185.52Z" style="fill:#3d4c65"/><path d="M382.72,211a68.72,68.72,0,0,1-7.07-.54l.12-1c3.53.42,7.65.7,8.57.47-.06-1.22-2.2-7.09-4.35-12.34l.93-.38c5.1,12.48,4.46,13.15,4.22,13.4A4.33,4.33,0,0,1,382.72,211Z" style="fill:#ca6e70"/><path d="M346.78,190.38s-2.13-14.88,17.86-19.78c23.66-5.81,30.24,8.74,33.89,24.76,2.44,10.72,7.54-9.73-3.6-26.19C382,150,354.28,152.53,343.82,161.78c-13,11.49-14.7,37.39-3.11,46.53S345.1,196.3,346.78,190.38Z" style="fill:#3d4c65"/><circle cx="337.31" cy="155.75" r="11.46" style="fill:#3d4c65"/><path d="M345.12,212.68s-2.74-8-7.74-7-3.17,16.18,4,16.76S345.5,213.65,345.12,212.68Z" style="fill:#e5b5b7"/><ellipse cx="365.95" cy="205.12" rx="2.24" ry="3.17" transform="translate(-48.12 137.73) rotate(-20.03)" style="fill:#3d4c65"/><ellipse cx="388.51" cy="199.19" rx="2.24" ry="3.17" transform="translate(-41.46 123.41) rotate(-17.15)" style="fill:#3d4c65"/><path d="M342.56,220.39l-.23-1a1,1,0,0,0,.78-.8c.66-2.08-1.19-7-3-9.06-.51-.58-1-.83-1.37-.75-.67.12-1.19,1.14-1.32,1.49l-.93-.35c.07-.19.72-1.87,2.06-2.13a2.52,2.52,0,0,1,2.31,1.08c1.86,2.09,4,7.41,3.2,10A2,2,0,0,1,342.56,220.39Z" style="fill:#ca6e70"/><circle cx="364.56" cy="215.38" r="4.78" style="fill:#c05c5d;opacity:0.38"/><circle cx="394.1" cy="208.52" r="4.78" style="fill:#c05c5d;opacity:0.38"/><path d="M377.37,229.11s-4.23-10.65,4.73-13c7.69-2,10,5.93,9.91,10.82-.06,3.17-1.23,4.8-6.43,6.25S377.36,230.66,377.37,229.11Z" style="fill:#e5b5b7"/><path d="M384.74,226.66a2.4,2.4,0,0,1-.71-.12c-3.7-1.2-5.61-5.69-5.69-5.88l.93-.39s1.81,4.26,5.06,5.32a.9.9,0,0,0,.93-.12c1.18-1,1.23-5.16,1-7.59l1-.1c.07.7.64,6.86-1.35,8.47A1.83,1.83,0,0,1,384.74,226.66Z" style="fill:#ca6e70"/><path d="M366.8,194.05c.69,1.38-1.82.92-4.07,2s-3.38,3.42-4.07,2,.57-3.4,2.82-4.53S366.11,192.68,366.8,194.05Z" style="fill:#3d4c65"/><path d="M392.48,191.22c.08,1.54-2,.12-4.55.26s-4.47,1.79-4.55.25,1.88-2.89,4.39-3S392.39,189.69,392.48,191.22Z" style="fill:#3d4c65"/><path d="M357.85,173s-9.62,4.23-8.22,13.5c.73,4.84,10.58,13.81-2.19,20.32C347.44,206.81,333.06,180.86,357.85,173Z" style="fill:#3d4c65"/><path d="M373.43,169.31s12.93-.66,16.15,7.18c2.05,5,3.66,16.12,8.07,15.3C403.41,190.72,402.13,162.05,373.43,169.31Z" style="fill:#3d4c65"/><path d="M253.49,267.79s13.91-7.23,31.84-23.74c0,0,33.12,19.62,53.07,23.4,0,0-28.84,26.8-31,29.51S278.51,290.17,253.49,267.79Z" style="fill:#c05c5d;opacity:0.38"/><path d="M526.07,346.56s-15.21,25.65-18.33,30.57c0,0-21.22-13.53-34.42-28.55L499,322.66S512.29,340.06,526.07,346.56Z" style="fill:#c05c5d;opacity:0.38"/><path d="M292.63,283.3s-50.34,32.68-60.84,5c-30.41-80.15-50.11-90.94-81.22-89.89-17.23.58-14.78,2.21-7.38,3.66,6,1.16,15.72,2,16.64,3.9,2.06,4.32-3.88-.75-7.16,5.34s-.06,19.29,4.63,20,11.63-6.67,24.94,9.23c11.79,14.09,7.42,153.37,122,90.72C304.21,331.23,302.42,291.35,292.63,283.3Z" style="fill:#e5b5b7"/><path d="M151.67,217l-.4-.91a27.84,27.84,0,0,1,9.66-2.18v1A27.57,27.57,0,0,0,151.67,217Z" style="fill:#3e2d4a"/><path d="M213,327.73s8.68-3.12,26.53-30.25c0,0,16.13,9.07,53.14-14.18,0,0,1.74,53.14-2.58,54.92S243.37,364.39,213,327.73Z" style="fill:#c05c5d;opacity:0.38"/><path d="M152.7,225.7,152,225a15.66,15.66,0,0,1,9.6-4.2v1A14.91,14.91,0,0,0,152.7,225.7Z" style="fill:#3e2d4a"/><path d="M351.13,411.17s-14.94-123-12.73-145.73c0,0-21.1-1.77-30.45,39.17-5.18,22.67,0,101.83,4.5,107.2S351.13,411.17,351.13,411.17Z" style="fill:#3d4c65"/><path d="M413.74,408.94S412.69,286,410.48,263.3c0,0,25.28,33.84,32.95,55.8s.81,87.34-3.67,92.71S413.74,408.94,413.74,408.94Z" style="fill:#3d4c65"/><path d="M473.32,351.27s38.2-27.59,31.21-37.7c-27.34-39.5-76.5-47.95-94-50.27,0,0,22.73,42.76,22.47,47.42S465.43,354.75,473.32,351.27Z" style="fill:#3d4c65"/><path d="M473.72,289.7s34-2.35,34.91-1.76,4.4,38.43,3.52,39S477.77,329,477.77,329,471.72,289.84,473.72,289.7Z" style="fill:#fff"/><path d="M478.11,292.52l29.63-1.76s-6.43,6.16-13.19,6.45S476,292.64,478.11,292.52Z" style="fill:#3d4c65"/><path d="M507.74,294s13-.86,14.86,3.24,4.51,20.58,3,21.87-13.44,3.6-13.44,3.6l-2.1-3.6s11.89-3.11,11.37-4-2.87-15.84-2.87-15.84L507.74,301Z" style="fill:#fff"/><path d="M547.12,314.54s-2-16.86-7.23-20.68-18.08-4.14-22.72-7.29.55,8.94,10.6,10.66c7.59,1.3-10.48,0-11.48,5.17s-1.18,17.31,6.1,14.75C532.93,313.45,542,325.13,547.12,314.54Z" style="fill:#e5b5b7"/><path d="M515.88,307l-.6-.8c3-2.25,11.62-3.91,12-4l.19,1C527.36,303.17,518.7,304.84,515.88,307Z" style="fill:#3d4c65"/><path d="M516,314l-.55-.82c5.8-3.93,13.74-4.1,14.07-4.1l0,1C529.43,310.06,521.53,310.23,516,314Z" style="fill:#3d4c65"/><path d="M447.34,211.34s-18.72,32.13,14.47,34.88,55.5,3.76,49.79,16-28.71,21.39-17.71,31.59c0,0-14.5-2.81-2-19.31s-10,1.5-40.5-24S438.3,223.63,447.34,211.34Z" style="fill:#fff"/><path d="M515.84,426.05S392.6,431.2,389.4,430.34,356.59,397.68,359,397.68H391.8s5.6-57.6,8.8-58.46,124.84-1.72,127.24,0S515.84,426.05,515.84,426.05Z" style="fill:#fff"/><path d="M389.55,422.05s-19.23-20.94-16.83-20.94h17.61Z" style="fill:#3d4c65"/><path d="M265.29,322.66S243,345.05,243.53,382.55s36,48.5,60,43.5,47-29.72,54-24.28,9.35,5.46,11.85,5.78c1.29.17,7.73-2.16,6.81-3.83-10.28-18.5,4.17-.58,10.34,7.83,2.25,3.08.69-29.5-25.5-28.5-17.35.67-49.65,21.5-68.65,9.5s-1.77-34-1.77-34Z" style="fill:#e5b5b7"/><path d="M373,406.49a21,21,0,0,0-4.83-8.54l.71-.71a21.66,21.66,0,0,1,5.08,9Z" style="fill:#3d4c65"/><path d="M370.42,407.58l-1-.1c.13-1.34-3.3-5.06-5.48-7.09l.68-.73C365.63,400.59,370.64,405.35,370.42,407.58Z" style="fill:#3d4c65"/><path d="M254.33,412s20.43-18.32,33.11-23.63c0,0-6-5.5-2.41-19.41l-33.82-24.23S232.54,386.44,254.33,412Z" style="fill:#c05c5d;opacity:0.38"/><path d="M290.78,372.72S246,353.31,243.52,344c-3.49-13,49.78-78.24,94.88-78.57,0,0-10.74,38.87-5.5,55.33C334.9,327.06,315,344.25,290.78,372.72Z" style="fill:#3d4c65"/><circle cx="457.95" cy="383.07" r="8.33" style="fill:#798b97"/><path d="M229.76,135.66c-.83-.83-1-1.95-1.22-3.64a33,33,0,0,0-.89-4.6l1-.26a34.38,34.38,0,0,1,.92,4.73c.22,1.54.34,2.47.94,3.06Z" style="fill:#3d4c65"/><path d="M224.32,139.84a17.13,17.13,0,0,1-2.45-6.57l1-.13a16.28,16.28,0,0,0,2.28,6.13Z" style="fill:#3d4c65"/><path d="M218.93,143a17.06,17.06,0,0,1-2.45-6.56l1-.14a16.3,16.3,0,0,0,2.28,6.14Z" style="fill:#3d4c65"/><path d="M307.4,350c-3.11-27.55.37-61.81.4-62.15l1,.1c0,.34-3.5,34.49-.41,61.94Z" style="fill:#334054"/><path d="M442.93,319.13c-1.05-19-5.09-41.66-5.13-41.89l1-.18c0,.23,4.1,22.94,5.15,42Z" style="fill:#334054"/><path d="M348.11,160.86l-.9-.44c2.63-5.4,3-9.48,1.23-12.12-2.72-4-9.65-3.43-9.72-3.43l-.08-1c.3,0,7.58-.59,10.62,3.85C351.3,150.69,350.91,155.11,348.11,160.86Z" style="fill:#3d4c65"/><path d="M333.87,168.2a9.73,9.73,0,0,1-2.83-.4,7.48,7.48,0,0,1-4.58-4c-4.12-8.15.41-13.93.46-14l.77.62c-.17.22-4.16,5.36-.34,12.91a6.56,6.56,0,0,0,4,3.47c4.48,1.39,10.27-1.75,10.33-1.78l.48.87A19.51,19.51,0,0,1,333.87,168.2Z" style="fill:#3d4c65"/><path d="M336.54,204.4c-15.72-22.56,4.82-40.91,5-41.09l.66.75c-.2.18-20.08,18-4.87,39.76Z" style="fill:#3d4c65"/></svg>